# Created by Kenney (www.kenney.nl)

mtllib wheelDefault.mtl

g wheelDefault

v 0.1 0.0233865 0.08727959
v 0.15 0.03118199 0.1163728
v 0.1 0.04517924 0.07825274
v 0.15 0.06023899 0.104337
v 0.15 0.120478 -3.970513E-15
v 0.15 0.1163728 -0.03118199
v 0.1 0.09035848 -2.52669E-15
v 0.1 0.08727959 -0.0233865
v 0.15 -0.104337 0.06023899
v 0.1 -0.07825274 0.04517924
v 0.15 -0.1163728 0.03118199
v 0.1 -0.08727959 0.0233865
v 0.15 -0.120478 -3.970513E-15
v 0.1 -0.09035848 -2.52669E-15
v 0.15 -0.1163728 -0.03118199
v 0.1 -0.08727959 -0.0233865
v 0.1 1.082867E-15 -0.09035848
v 0.1 0.0233865 -0.08727959
v 0.15 1.353584E-15 -0.120478
v 0.15 0.03118199 -0.1163728
v 0.15 0.104337 -0.06023899
v 0.15 0.08519079 -0.08519079
v 0.1 0.07825274 -0.04517924
v 0.1 0.06389309 -0.06389309
v 0.15 -0.104337 -0.06023899
v 0.1 -0.07825274 -0.04517924
v 0.15 -0.08519079 -0.08519079
v 0.1 -0.06389309 -0.06389309
v 0.1 8.121503E-16 0.09035848
v 0.15 9.926282E-16 0.120478
v 0.15 -0.08519079 0.08519079
v 0.1 -0.06389309 0.06389309
v 0.15 -0.03118199 -0.1163728
v 0.1 -0.0233865 -0.08727959
v 0.1 0.06389309 0.06389309
v 0.15 0.08519079 0.08519079
v 0.15 -0.06023899 -0.104337
v 0.1 -0.04517924 -0.07825274
v 0.15 0.1282467 -0.1282467
v 0.15 0.1570695 -0.0906841
v 0.15 0.06023899 -0.104337
v 0.15 0.1751882 -0.04694154
v 0.15 0.1813682 -3.970513E-15
v 0.15 0.1751882 0.04694154
v 0.15 0.1163728 0.03118199
v 0.15 0.104337 0.06023899
v 0.15 0.1570695 0.0906841
v 0.15 0.1282467 0.1282467
v 0.15 1.759659E-15 -0.1813682
v 0.15 -0.04694154 -0.1751882
v 0.15 0.04694154 -0.1751882
v 0.15 0.0906841 -0.1570695
v 0.15 -0.0906841 -0.1570695
v 0.15 -0.1282467 -0.1282467
v 0.15 -0.1570695 -0.0906841
v 0.15 -0.1751882 -0.04694154
v 0.15 -0.1813682 -3.970513E-15
v 0.15 -0.1751882 0.04694154
v 0.15 -0.1570695 0.0906841
v 0.15 -0.06023899 0.104337
v 0.15 -0.1282467 0.1282467
v 0.15 -0.03118199 0.1163728
v 0.15 0.0906841 0.1570695
v 0.15 -0.0906841 0.1570695
v 0.15 0.04694154 0.1751882
v 0.15 -0.04694154 0.1751882
v 0.15 1.849898E-15 0.1813682
v 0.1 0.07825274 0.04517924
v 0.1 0.08727959 0.0233865
v 0.1 -0.0233865 0.08727959
v 0.1 -0.04517924 0.07825274
v 0.1 0.04517924 -0.07825274
v 0.15 -0.2208365 -0.1275
v 0.15 -0.1803122 -0.1803122
v 0.05 -0.2598076 -0.15
v 0.05 -0.212132 -0.212132
v 0.15 0.2463111 -0.06599885
v 0.05 0.2897778 -0.07764571
v 0.15 0.2208365 -0.1275
v 0.05 0.2598076 -0.15
v 0.15 -0.1803122 0.1803122
v 0.15 -0.2208365 0.1275
v 0.05 -0.212132 0.212132
v 0.05 -0.2598076 0.15
v 0.15 0.1803122 -0.1803122
v 0.05 0.212132 -0.212132
v 0.05 -0.15 0.2598076
v -0.15 -0.15 0.2598076
v 0.05 -0.07764571 0.2897778
v -0.15 -0.07764571 0.2897778
v -0.15 0.07764571 -0.2897778
v 0.05 0.07764571 -0.2897778
v -0.15 0.15 -0.2598076
v 0.05 0.15 -0.2598076
v 0.15 0.2208365 0.1275
v 0.05 0.2598076 0.15
v 0.15 0.2463111 0.06599885
v 0.05 0.2897778 0.07764571
v 0.05 -0.3 -2.165734E-15
v 0.05 -0.2897778 -0.07764571
v -0.15 -0.3 2.52669E-15
v -0.15 -0.2897778 -0.07764571
v -0.15 -0.15 -0.2598076
v 0.05 -0.15 -0.2598076
v -0.15 -0.07764571 -0.2897778
v 0.05 -0.07764571 -0.2897778
v 0.15 0.255 -3.970513E-15
v 0.05 0.3 -2.165734E-15
v 0.15 0.06599885 -0.2463111
v 0.15 0.1275 -0.2208365
v -0.15 0.212132 -0.212132
v -0.15 0 -0.3
v -0.15 -0.212132 -0.212132
v -0.15 -0.2598076 -0.15
v -0.15 0.2598076 -0.15
v -0.15 0.2897778 -0.07764571
v -0.15 0.3 2.52669E-15
v -0.15 -0.2897778 0.07764571
v -0.15 0.2897778 0.07764571
v -0.15 -0.2598076 0.15
v -0.15 0.2598076 0.15
v -0.15 -0.212132 0.212132
v -0.15 0.212132 0.212132
v -0.15 0.15 0.2598076
v -0.15 0.07764571 0.2897778
v -0.15 4.511946E-17 0.3
v 0.15 -0.06599885 -0.2463111
v 0.05 0 -0.3
v 0.15 0 -0.255
v 0.05 -0.2897778 0.07764571
v 0.15 -0.1275 -0.2208365
v 0.05 0.15 0.2598076
v 0.05 0.212132 0.212132
v 0.15 0.1803122 0.1803122
v 0.15 4.511946E-17 0.255
v 0.05 4.511946E-17 0.3
v 0.15 0.06599885 0.2463111
v 0.05 0.07764571 0.2897778
v 0.15 0.1275 0.2208365
v 0.15 -0.1275 0.2208365
v 0.15 -0.2463111 0.06599885
v 0.15 -0.255 -3.970513E-15
v 0.15 -0.2463111 -0.06599885
v 0.15 -0.06599885 0.2463111

vn 0.5160002 -0.2217014 -0.8274009
vn 0.5160002 -0.4282942 -0.7418273
vn 0.5160002 -0.8565885 0
vn 0.5160002 -0.8274009 0.2217014
vn 0.5160002 0.7418273 -0.4282942
vn 0.5160002 0.8274009 -0.2217014
vn 0.5160002 0.8565885 0
vn 0.5160002 0.8274009 0.2217014
vn 0.5160002 0 0.8565885
vn 0.5160002 -0.2217014 0.8274009
vn 0.5160002 -0.7418273 0.4282942
vn 0.5160002 -0.6056995 0.6056995
vn 0.5160002 0.7418273 0.4282942
vn 0.5160002 0.6056995 0.6056995
vn 0.5160002 0 -0.8565885
vn 0.5160002 0.6056995 -0.6056995
vn 0.5160002 0.2217014 0.8274009
vn 0.5160002 -0.6056995 -0.6056995
vn 0.5160002 0.4282942 0.7418273
vn 1 0 0
vn 0.5160002 -0.7418273 -0.4282942
vn 0.5160002 -0.8274009 -0.2217014
vn 0.5160002 0.2217014 -0.8274009
vn 0.5160002 0.4282942 -0.7418273
vn 0.5160002 -0.4282942 0.7418273
vn 0.4103647 -0.7897472 -0.4559608
vn 0.4103647 -0.6448259 -0.6448259
vn 0.4103647 0.8808486 -0.2360227
vn 0.4103647 0.7897472 -0.4559608
vn 0.4103647 -0.6448259 0.6448259
vn 0.4103647 -0.7897472 0.4559608
vn 0.4103647 0.6448259 -0.6448259
vn 0 -0.5 0.8660254
vn 0 -0.258819 0.9659258
vn 0 0.258819 -0.9659258
vn 0 0.5 -0.8660254
vn 0.4103647 0.7897472 0.4559608
vn 0.4103647 0.8808486 0.2360227
vn 0 -1 0
vn 0 -0.9659258 -0.258819
vn 0 -0.5 -0.8660254
vn 0 -0.258819 -0.9659258
vn 0.4103647 0.9119215 0
vn 0.4103647 0.2360227 -0.8808486
vn 0.4103647 0.4559608 -0.7897472
vn 0 0.7071068 -0.7071068
vn -1 0 0
vn 0.4103647 -0.2360227 -0.8808486
vn 0.4103647 0 -0.9119215
vn 0 -0.7071068 0.7071068
vn 0 -0.8660254 0.5
vn 0 -0.9659258 0.258819
vn 0 0.9659258 0.258819
vn 0 1 0
vn 0 -0.8660254 -0.5
vn 0 -0.7071068 -0.7071068
vn 0.4103647 -0.4559608 -0.7897472
vn 0 0.8660254 0.5
vn 0 0.5 0.8660254
vn 0 0.7071068 0.7071068
vn 0 0 -1
vn 0.4103647 0.6448259 0.6448259
vn 0.4103647 0 0.9119215
vn 0.4103647 0.2360227 0.8808486
vn 0.4103647 0.4559608 0.7897472
vn 0.4103647 -0.4559608 0.7897472
vn 0.4103647 -0.8808486 0.2360227
vn 0.4103647 -0.9119215 0
vn 0 0.9659258 -0.258819
vn 0 0.8660254 -0.5
vn 0.4103647 -0.8808486 -0.2360227
vn 0 0.258819 0.9659258
vn 0.4103647 -0.2360227 0.8808486
vn 0 0 1

vt 3.200859 0.9860431
vt -0.03472009 -1.872246
vt 1.038689 3.184164
vt 5.905512 1.541648
vt 5.905512 -1.541648
vt -1.968504 1.541648
vt -1.968504 -1.541648
vt 0.5527383 3.30337
vt 1.658215 -0.8699625
vt -2.381196 2.355351
vt -5.905512 1.541648
vt 1.968504 1.541648
vt -5.905512 -1.541648
vt -2.886554 1.6987
vt 1.405939 1.23687
vt -3.051706 -1.38017
vt 0.8857109 1.649857
vt 1.667747 -0.8515468
vt -3.297958 0.5841646
vt 0.5527383 -3.30337
vt -2.381196 -2.355351
vt 1.658215 0.8699625
vt 3.200859 -0.9860431
vt 1.038689 -3.184164
vt -0.03472009 1.872246
vt -1.405939 1.23687
vt 2.886554 1.6987
vt -1.26556 -1.38017
vt -1.038689 -3.184164
vt -3.200859 -0.9860431
vt 1.872564 0.003843261
vt 0 0
vt -1.795989 -0.5300323
vt -0.5669055 1.784693
vt 1.903153 -2.756045
vt 3.349134 -0.03283872
vt -1.872564 -0.003843261
vt 0.5669055 1.784693
vt 1.795989 -0.5300323
vt -3.349134 -0.03283872
vt -1.903153 -2.756045
vt -1.795989 0.5300323
vt 1.903153 2.756045
vt -0.5669055 -1.784693
vt 3.349134 0.03283872
vt 1.968504 -1.541648
vt 0.03472009 -1.872246
vt -3.200859 0.9860431
vt 1.872564 -0.003843261
vt -1.038689 3.184164
vt -1.658215 -0.8699625
vt -0.5527383 3.30337
vt 0.8356296 -1.675779
vt 2.381196 2.355351
vt -1.100949 -1.514735
vt -1.537086 1.069522
vt 3.188488 -1.025338
vt 2.675387 2.014965
vt -11.81102 0
vt -11.40857 3.056918
vt -11.40857 -3.056918
vt -10.22865 5.905512
vt -10.22865 -5.905512
vt -8.351655 -8.351655
vt -8.351655 8.351655
vt -5.905512 -10.22865
vt -5.905512 10.22865
vt -3.056918 -11.40857
vt -3.056918 11.40857
vt -2.312935E-14 -11.81102
vt -2.312935E-14 11.81102
vt 3.056918 -11.40857
vt 3.056918 11.40857
vt 5.905512 -10.22865
vt 5.905512 10.22865
vt 8.351655 -8.351655
vt 8.351655 8.351655
vt 10.22865 -5.905512
vt 10.22865 5.905512
vt 11.40857 -3.056918
vt 11.40857 3.056918
vt 11.81102 1.776357E-15
vt 2.886554 -1.6987
vt -1.405939 -1.23687
vt 3.051706 1.38017
vt -1.26556 1.38017
vt -0.8857109 -1.649857
vt -1.667747 0.8515468
vt 3.297958 -0.5841646
vt 2.377916 2.358663
vt 2.675387 -2.014965
vt -1.537086 -1.069522
vt 3.188488 1.025338
vt -1.100949 1.514735
vt -0.8356296 -1.675779
vt 2.377916 -2.358663
vt -1.667747 -0.8515468
vt 3.297958 0.5841646
vt -0.8857109 1.649857
vt 0.5669055 -1.784693
vt -3.349134 0.03283872
vt 1.795989 0.5300323
vt -1.903153 2.756045
vt 1.26556 -1.38017
vt 0.8857109 -1.649857
vt -3.297958 -0.5841646
vt 1.667747 0.8515468
vt -2.377916 2.358663
vt -2.377916 -2.358663
vt -0.8356296 1.675779
vt -1.658215 0.8699625
vt 0.8356296 1.675779
vt -0.5527383 -3.30337
vt 2.381196 -2.355351
vt -2.675387 -2.014965
vt -3.188488 1.025338
vt 1.537086 -1.069522
vt 1.100949 1.514735
vt 10.03937 0
vt 9.697287 -2.59838
vt 9.697287 2.59838
vt 8.694349 5.019685
vt 8.694349 -5.019685
vt 7.098907 7.098907
vt 7.140481 6.927792E-14
vt 7.098907 -7.098907
vt 6.897174 1.848092
vt 6.897174 -1.848092
vt 5.019685 8.694349
vt 5.019685 -8.694349
vt 6.183837 3.57024
vt 5.049082 5.049082
vt 3.57024 6.183837
vt 2.59838 9.697287
vt 1.848092 6.897174
vt 3.371406E-14 10.03937
vt 3.371406E-14 7.140481
vt 6.183837 -3.57024
vt 5.049082 -5.049082
vt 3.57024 -6.183837
vt 2.59838 -9.697287
vt 1.848092 -6.897174
vt -2.59838 9.697287
vt -1.848092 6.897174
vt -3.57024 6.183837
vt -5.019685 8.694349
vt -5.049082 5.049082
vt 3.371406E-14 -10.03937
vt 3.371406E-14 -7.140481
vt -1.848092 -6.897174
vt -2.59838 -9.697287
vt -3.57024 -6.183837
vt -5.019685 -8.694349
vt -5.049082 -5.049082
vt -7.098907 7.098907
vt -7.098907 -7.098907
vt -6.183837 3.57024
vt -6.897174 1.848092
vt -6.183837 -3.57024
vt -6.897174 -1.848092
vt -7.140481 7.283063E-14
vt -8.694349 5.019685
vt -8.694349 -5.019685
vt -9.697287 2.59838
vt -9.697287 -2.59838
vt -10.03937 1.776357E-15
vt 1.100949 -1.514735
vt -3.188488 -1.025338
vt 1.537086 1.069522
vt -2.675387 2.014965
vt -2.886554 -1.6987
vt -3.051706 1.38017
vt 1.405939 -1.23687
vt 1.26556 1.38017
vt -1.872564 0.003843261
vt 3.051706 -1.38017
vt 0.03472009 1.872246

usemtl _defaultMat

f 3/3/2 2/2/1 1/1/1
f 2/3/1 3/2/2 4/1/2
f 7/6/3 6/5/4 5/4/3
f 6/6/4 7/5/3 8/4/4
f 11/6/6 10/5/5 9/4/5
f 10/6/5 11/5/6 12/4/6
f 15/7/8 14/4/7 13/6/7
f 14/7/7 15/4/8 16/6/8
f 19/10/9 18/9/10 17/8/9
f 18/10/10 19/9/9 20/8/10
f 23/10/11 22/9/12 21/8/11
f 22/10/12 23/9/11 24/8/12
f 27/13/14 26/12/13 25/11/13
f 26/13/13 27/12/14 28/11/14
f 1/16/1 30/15/15 29/14/15
f 30/16/15 1/15/1 2/14/1
f 10/19/5 31/18/16 9/17/5
f 31/19/16 10/18/5 32/17/16
f 19/22/9 34/21/17 33/20/17
f 34/22/17 19/21/9 17/20/9
f 35/22/18 4/21/2 3/20/2
f 4/22/2 35/21/18 36/20/18
f 8/13/4 21/12/11 6/11/4
f 21/13/11 8/12/4 23/11/11
f 37/13/19 28/12/14 27/11/14
f 28/13/14 37/12/19 38/11/19
f 39/4/20 20/7/20 19/5/20
f 20/4/20 39/7/20 40/5/20
f 20/4/20 40/7/20 41/5/20
f 41/4/20 40/7/20 22/5/20
f 22/4/20 40/7/20 42/5/20
f 22/4/20 42/7/20 21/5/20
f 21/4/20 42/7/20 6/5/20
f 6/4/20 42/7/20 43/5/20
f 6/4/20 43/7/20 5/5/20
f 5/4/20 43/7/20 44/5/20
f 5/4/20 44/7/20 45/5/20
f 45/4/20 44/7/20 46/5/20
f 46/4/20 44/7/20 47/5/20
f 46/4/20 47/7/20 36/5/20
f 36/4/20 47/7/20 4/5/20
f 4/4/20 47/7/20 48/5/20
f 4/4/20 48/7/20 2/5/20
f 2/4/20 48/7/20 30/5/20
f 51/4/20 50/7/20 49/5/20
f 50/4/20 51/7/20 52/5/20
f 50/4/20 52/7/20 53/5/20
f 53/4/20 52/7/20 39/5/20
f 53/4/20 39/7/20 54/5/20
f 54/4/20 39/7/20 19/5/20
f 54/4/20 19/7/20 33/5/20
f 54/4/20 33/7/20 55/5/20
f 55/4/20 33/7/20 37/5/20
f 55/4/20 27/7/20 56/5/20
f 55/4/20 37/7/20 27/5/20
f 56/4/20 27/7/20 25/5/20
f 56/4/20 25/7/20 15/5/20
f 56/4/20 15/7/20 57/5/20
f 57/4/20 15/7/20 13/5/20
f 57/4/20 13/7/20 11/5/20
f 57/4/20 11/7/20 58/5/20
f 58/4/20 11/7/20 9/5/20
f 58/4/20 9/7/20 59/5/20
f 59/4/20 9/7/20 31/5/20
f 59/4/20 31/7/20 60/5/20
f 59/4/20 60/7/20 61/5/20
f 61/4/20 60/7/20 62/5/20
f 61/4/20 62/7/20 30/5/20
f 61/4/20 30/7/20 48/5/20
f 61/4/20 48/7/20 63/5/20
f 61/4/20 63/7/20 64/5/20
f 64/4/20 63/7/20 65/5/20
f 64/4/20 65/7/20 66/5/20
f 66/4/20 65/7/20 67/5/20
f 68/25/21 45/24/22 46/23/21
f 45/25/22 68/24/21 69/23/22
f 70/25/23 30/24/15 62/23/23
f 30/25/15 70/24/23 29/23/15
f 33/25/17 38/24/19 37/23/19
f 38/25/19 33/24/17 34/23/17
f 35/25/18 46/24/21 36/23/18
f 46/25/21 35/24/18 68/23/21
f 26/25/13 15/24/8 25/23/13
f 15/25/8 26/24/13 16/23/8
f 32/28/16 60/27/24 31/26/16
f 60/28/24 32/27/16 71/26/24
f 18/28/20 34/27/20 17/26/20
f 34/28/20 18/27/20 72/26/20
f 34/28/20 72/27/20 38/26/20
f 38/28/20 72/27/20 24/26/20
f 38/28/20 24/27/20 28/26/20
f 28/28/20 24/27/20 23/26/20
f 28/28/20 23/27/20 26/26/20
f 26/28/20 23/27/20 8/26/20
f 26/28/20 8/27/20 16/26/20
f 16/28/20 8/27/20 7/26/20
f 16/28/20 7/27/20 14/26/20
f 14/28/20 7/27/20 69/26/20
f 14/28/20 69/27/20 12/26/20
f 12/28/20 69/27/20 68/26/20
f 12/28/20 68/27/20 10/26/20
f 10/28/20 68/27/20 35/26/20
f 10/28/20 35/27/20 32/26/20
f 32/28/20 35/27/20 3/26/20
f 32/28/20 3/27/20 71/26/20
f 71/28/20 3/27/20 1/26/20
f 71/28/20 1/27/20 70/26/20
f 70/28/20 1/27/20 29/26/20
f 20/31/10 72/30/25 18/29/10
f 72/31/25 20/30/10 41/29/25
f 69/31/22 5/30/3 45/29/22
f 5/31/3 69/30/22 7/29/3
f 41/31/25 24/30/12 72/29/25
f 24/31/12 41/30/25 22/29/12
f 14/32/7 11/32/6 13/32/7
f 11/32/6 14/32/7 12/32/6
f 71/32/24 62/32/23 60/32/24
f 62/32/23 71/32/24 70/32/23

usemtl carTire

f 75/35/26 74/34/27 73/33/26
f 74/34/27 75/35/26 76/36/27
f 79/2/29 78/3/28 77/37/28
f 78/3/28 79/2/29 80/1/29
f 83/40/30 82/39/31 81/38/30
f 82/39/31 83/40/30 84/41/31
f 85/44/32 80/43/29 79/42/29
f 80/43/29 85/44/32 86/45/32
f 89/12/34 88/13/33 87/46/33
f 88/13/33 89/12/34 90/11/34
f 93/4/36 92/7/35 91/5/35
f 92/7/35 93/4/36 94/6/36
f 97/49/38 96/48/37 95/47/37
f 96/48/37 97/49/38 98/50/38
f 101/5/39 100/6/40 99/7/39
f 100/6/40 101/5/39 102/4/40
f 105/4/42 104/7/41 103/5/41
f 104/7/41 105/4/42 106/6/42
f 77/53/28 108/52/43 107/51/43
f 108/52/43 77/53/28 78/54/28
f 92/57/44 110/56/45 109/55/44
f 110/56/45 92/57/44 94/58/45
f 111/4/46 94/7/36 93/5/36
f 94/7/36 111/4/46 86/6/46
f 105/61/47 91/60/47 112/59/47
f 91/60/47 105/61/47 93/62/47
f 93/62/47 105/61/47 103/63/47
f 93/62/47 103/63/47 113/64/47
f 93/62/47 113/64/47 111/65/47
f 111/65/47 113/64/47 114/66/47
f 111/65/47 114/66/47 115/67/47
f 115/67/47 114/66/47 102/68/47
f 115/67/47 102/68/47 116/69/47
f 116/69/47 102/68/47 101/70/47
f 116/69/47 101/70/47 117/71/47
f 117/71/47 101/70/47 118/72/47
f 117/71/47 118/72/47 119/73/47
f 119/73/47 118/72/47 120/74/47
f 119/73/47 120/74/47 121/75/47
f 121/75/47 120/74/47 122/76/47
f 121/75/47 122/76/47 123/77/47
f 123/77/47 122/76/47 88/78/47
f 123/77/47 88/78/47 124/79/47
f 124/79/47 88/78/47 90/80/47
f 124/79/47 90/80/47 125/81/47
f 125/81/47 90/80/47 126/82/47
f 128/85/49 127/84/48 106/83/48
f 127/84/48 128/85/49 129/86/49
f 87/12/33 122/13/50 83/46/50
f 122/13/50 87/12/33 88/11/33
f 122/11/50 84/46/51 83/12/50
f 84/46/51 122/11/50 120/13/51
f 94/89/45 85/88/32 110/87/45
f 85/88/32 94/89/45 86/90/32
f 118/11/52 99/46/39 130/12/52
f 99/46/39 118/11/52 101/13/39
f 108/12/54 119/13/53 98/46/53
f 119/13/53 108/12/54 117/11/54
f 114/5/55 76/6/56 75/7/55
f 76/6/56 114/5/55 113/4/56
f 106/93/48 131/92/57 104/91/57
f 131/92/57 106/93/48 127/94/48
f 120/11/51 130/46/52 84/12/51
f 130/46/52 120/11/51 118/13/52
f 107/9/43 98/10/38 97/95/38
f 98/10/38 107/9/43 108/8/43
f 98/12/53 121/13/58 96/46/58
f 121/13/58 98/12/53 119/11/53
f 133/12/60 124/13/59 132/46/59
f 124/13/59 133/12/60 123/11/60
f 96/12/58 123/13/60 133/46/60
f 123/13/60 96/12/58 121/11/58
f 104/98/57 74/97/27 76/96/27
f 74/97/27 104/98/57 131/99/57
f 112/4/61 106/7/42 105/5/42
f 106/7/42 112/4/61 128/6/61
f 95/102/37 133/101/62 134/100/62
f 133/101/62 95/102/37 96/103/37
f 137/15/64 136/16/63 135/104/63
f 136/16/63 137/15/64 138/14/64
f 134/107/62 132/106/65 139/105/65
f 132/106/65 134/107/62 133/108/62
f 103/4/41 76/7/56 113/5/56
f 76/7/56 103/4/41 104/6/41
f 81/18/30 87/19/66 83/109/30
f 87/19/66 81/18/30 140/17/66
f 130/21/67 142/22/68 141/110/67
f 142/22/68 130/21/67 99/20/68
f 80/7/70 116/4/69 78/6/69
f 116/4/69 80/7/70 115/5/70
f 86/7/46 115/4/70 80/6/70
f 115/4/70 86/7/46 111/5/46
f 99/113/68 143/112/71 142/111/68
f 143/112/71 99/113/68 100/114/71
f 132/12/59 125/13/72 138/46/72
f 125/13/72 132/12/59 124/11/59
f 102/5/40 75/6/55 100/7/40
f 75/6/55 102/5/40 114/4/55
f 140/117/66 89/116/73 87/115/66
f 89/116/73 140/117/66 144/118/73
f 109/121/20 127/120/20 129/119/20
f 127/120/20 109/121/20 110/122/20
f 127/120/20 110/122/20 131/123/20
f 131/123/20 110/122/20 85/124/20
f 131/123/20 85/124/20 49/125/20
f 49/125/20 74/126/20 131/123/20
f 49/125/20 85/124/20 51/127/20
f 74/126/20 49/125/20 50/128/20
f 51/127/20 85/124/20 79/129/20
f 74/126/20 50/128/20 73/130/20
f 51/127/20 79/129/20 52/131/20
f 52/131/20 79/129/20 39/132/20
f 39/132/20 79/129/20 40/133/20
f 40/133/20 79/129/20 77/134/20
f 40/133/20 77/134/20 42/135/20
f 42/135/20 77/134/20 107/136/20
f 42/135/20 107/136/20 43/137/20
f 73/130/20 50/128/20 53/138/20
f 73/130/20 53/138/20 54/139/20
f 73/130/20 54/139/20 55/140/20
f 73/130/20 55/140/20 143/141/20
f 143/141/20 55/140/20 56/142/20
f 43/137/20 107/136/20 97/143/20
f 43/137/20 97/143/20 44/144/20
f 44/144/20 97/143/20 47/145/20
f 47/145/20 97/143/20 95/146/20
f 47/145/20 95/146/20 48/147/20
f 143/141/20 56/142/20 142/148/20
f 142/148/20 56/142/20 57/149/20
f 142/148/20 57/149/20 58/150/20
f 142/148/20 58/150/20 141/151/20
f 141/151/20 58/150/20 59/152/20
f 141/151/20 59/152/20 82/153/20
f 82/153/20 59/152/20 61/154/20
f 48/147/20 95/146/20 134/155/20
f 82/153/20 61/154/20 81/156/20
f 48/147/20 134/155/20 63/157/20
f 63/157/20 134/155/20 65/158/20
f 81/156/20 61/154/20 64/159/20
f 81/156/20 64/159/20 66/160/20
f 65/158/20 134/155/20 67/161/20
f 81/156/20 66/160/20 67/161/20
f 67/161/20 134/155/20 139/162/20
f 81/156/20 67/161/20 140/163/20
f 140/163/20 67/161/20 139/162/20
f 140/163/20 139/162/20 137/164/20
f 140/163/20 137/164/20 144/165/20
f 144/165/20 137/164/20 135/166/20
f 136/12/74 90/13/34 89/46/34
f 90/13/34 136/12/74 126/11/74
f 139/169/65 138/168/64 137/167/64
f 138/168/64 139/169/65 132/170/65
f 144/173/73 136/172/63 89/171/73
f 136/172/63 144/173/73 135/174/63
f 78/7/69 117/4/54 108/6/54
f 117/4/54 78/7/69 116/5/69
f 100/24/71 73/25/26 143/175/71
f 73/25/26 100/24/71 75/23/26
f 138/12/72 126/13/74 136/46/74
f 126/13/74 138/12/72 125/11/72
f 91/4/35 128/7/61 112/5/61
f 128/7/61 91/4/35 92/6/35
f 92/27/44 129/28/49 128/176/49
f 129/28/49 92/27/44 109/26/44
f 84/30/31 141/31/67 82/177/31
f 141/31/67 84/30/31 130/29/67

