# Created by Kenney (www.kenney.nl)

mtllib wheelDark.mtl

g wheelDark

v 0.15 0.1095254 -1.815607E-13
v 0.15 0.1057934 -0.02834727
v 0.05 0.08214407 -9.059988E-14
v 0.05 0.07934508 -0.02126045
v 0.15 -0.1057934 0.02834727
v 0.05 -0.07934508 0.02126045
v 0.15 -0.1095254 -1.815607E-13
v 0.05 -0.08214407 -9.059988E-14
v 0.15 0.09485181 0.05476272
v 0.15 0.1057934 0.02834727
v 0.05 0.07113886 0.04107204
v 0.05 0.07934508 0.02126045
v 0.15 -0.05476272 -0.09485181
v 0.05 -0.04107204 -0.07113886
v 0.15 -0.02834727 -0.1057934
v 0.05 -0.02126045 -0.07934508
v 0.15 -0.07744618 0.07744618
v 0.15 -0.05476272 0.09485181
v 0.05 -0.05808463 0.05808463
v 0.05 -0.04107204 0.07113886
v 0.15 -0.02834727 0.1057934
v 0.15 1.263345E-15 0.1095254
v 0.05 -0.02126045 0.07934508
v 0.05 1.037748E-15 0.08214407
v 0.15 0.09485181 -0.05476272
v 0.15 0.07744618 -0.07744618
v 0.05 0.07113886 -0.04107204
v 0.05 0.05808463 -0.05808463
v 0.15 -0.09485181 0.05476272
v 0.05 -0.07113886 0.04107204
v 0.05 0.04107204 0.07113886
v 0.15 0.05476272 0.09485181
v 0.05 0.05808463 0.05808463
v 0.15 0.07744618 0.07744618
v 0.05 0.04107204 -0.07113886
v 0.15 0.05476272 -0.09485181
v 0.15 -0.09485181 -0.05476272
v 0.05 -0.07113886 -0.04107204
v 0.15 -0.07744618 -0.07744618
v 0.05 -0.05808463 -0.05808463
v 0.15 1.71454E-15 -0.1648802
v 0.15 -0.04267413 -0.159262
v 0.15 0.04267413 -0.159262
v 0.15 0.08244009 -0.1427904
v 0.15 -0.08244009 -0.1427904
v 0.15 -0.1165879 -0.1165879
v 0.15 0.1165879 -0.1165879
v 0.15 9.023893E-16 -0.1095254
v 0.15 0.02834727 -0.1057934
v 0.15 0.1427904 -0.08244009
v 0.15 -0.1427904 -0.08244009
v 0.15 0.159262 -0.04267413
v 0.15 0.1648802 -1.815607E-13
v 0.15 -0.159262 -0.04267413
v 0.15 -0.1057934 -0.02834727
v 0.15 0.159262 0.04267413
v 0.15 -0.1648802 -1.815607E-13
v 0.15 -0.159262 0.04267413
v 0.15 0.1427904 0.08244009
v 0.15 -0.1427904 0.08244009
v 0.15 0.1165879 0.1165879
v 0.15 -0.1165879 0.1165879
v 0.15 0.02834727 0.1057934
v 0.15 0.08244009 0.1427904
v 0.15 -0.08244009 0.1427904
v 0.15 0.04267413 0.159262
v 0.15 -0.04267413 0.159262
v 0.15 1.579181E-15 0.1648802
v 0.05 7.670309E-16 -0.08214407
v 0.05 0.02126045 -0.07934508
v 0.05 -0.07934508 -0.02126045
v 0.05 0.02126045 0.07934508
v 0.15 -0.2208365 0.1275
v 0.15 -0.2463111 0.06599885
v 0.05 -0.2598076 0.15
v 0.05 -0.2897778 0.07764571
v 0.05 0.2897778 -0.07764571
v -0.15 0.2897778 -0.07764571
v 0.05 0.2598076 -0.15
v -0.15 0.2598076 -0.15
v 0.05 0.212132 -0.212132
v -0.15 0.212132 -0.212132
v 0.15 0 0.255
v 0.05 0 0.3
v 0.15 0.06599885 0.2463111
v 0.05 0.07764571 0.2897778
v -0.15 4.511946E-17 -0.3
v 0.05 4.511946E-17 -0.3
v -0.15 0.07764571 -0.2897778
v 0.05 0.07764571 -0.2897778
v -0.15 -0.07764571 -0.2897778
v -0.15 -0.15 -0.2598076
v -0.15 0.15 -0.2598076
v -0.15 -0.212132 -0.212132
v -0.15 -0.2598076 -0.15
v -0.15 -0.2897778 -0.07764571
v -0.15 -0.3 9.059988E-14
v -0.15 0.3 9.059988E-14
v -0.15 -0.2897778 0.07764571
v -0.15 0.2897778 0.07764571
v -0.15 -0.2598076 0.15
v -0.15 0.2598076 0.15
v -0.15 -0.212132 0.212132
v -0.15 0.212132 0.212132
v -0.15 -0.15 0.2598076
v -0.15 0.15 0.2598076
v -0.15 -0.07764571 0.2897778
v -0.15 0.07764571 0.2897778
v -0.15 0 0.3
v 0.05 -0.15 0.2598076
v 0.05 -0.07764571 0.2897778
v 0.15 -0.06599885 0.2463111
v 0.05 -0.212132 -0.212132
v 0.15 -0.1803122 -0.1803122
v 0.05 -0.15 -0.2598076
v 0.15 -0.1275 -0.2208365
v 0.05 0.15 0.2598076
v 0.05 0.212132 0.212132
v 0.05 -0.07764571 -0.2897778
v 0.05 0.2598076 0.15
v 0.05 0.2897778 0.07764571
v 0.05 -0.212132 0.212132
v 0.15 0.2463111 0.06599885
v 0.15 0.255 -1.815607E-13
v 0.05 0.3 -9.059988E-14
v 0.05 -0.2598076 -0.15
v 0.15 4.511946E-17 -0.255
v 0.15 0.06599885 -0.2463111
v 0.05 -0.3 -9.059988E-14
v 0.05 -0.2897778 -0.07764571
v 0.15 0.1275 -0.2208365
v 0.05 0.15 -0.2598076
v 0.15 -0.255 -1.815607E-13
v 0.15 0.2463111 -0.06599885
v 0.15 -0.2463111 -0.06599885
v 0.15 -0.2208365 -0.1275
v 0.15 0.2208365 -0.1275
v 0.15 -0.06599885 -0.2463111
v 0.15 0.1275 0.2208365
v 0.15 0.1803122 0.1803122
v 0.15 0.2208365 0.1275
v 0.15 -0.1803122 0.1803122
v 0.15 -0.1275 0.2208365
v 0.15 0.1803122 -0.1803122

vn 0.2640925 -0.9644974 0
vn 0.2640924 -0.9316329 0.2496303
vn 0.2640924 0.9316329 -0.2496303
vn 0.2640925 0.9644974 0
vn 0.2640925 -0.8352792 -0.4822487
vn 0.2640924 -0.9316329 -0.2496303
vn 0.2640925 0.4822487 0.8352792
vn 0.2640924 0.2496303 0.9316329
vn 0.2640925 0.6820027 -0.6820027
vn 0.2640925 0.4822487 -0.8352792
vn 0.2640924 0.2496303 -0.9316329
vn 0.2640925 0 -0.9644974
vn 0.2640925 -0.8352792 0.4822487
vn 0.2640925 -0.6820027 0.6820027
vn 0.2640925 0.8352792 -0.4822487
vn 0.2640925 -0.4822487 -0.8352792
vn 0.2640925 -0.6820027 -0.6820027
vn 0.2640925 -0.4822487 0.8352792
vn 0.2640925 0.8352792 0.4822487
vn 0.2640925 0.6820027 0.6820027
vn 1 0 0
vn 0.2640925 0 0.9644974
vn 0.2640924 -0.2496303 0.9316329
vn 0.2640924 -0.2496303 -0.9316329
vn 0.2640924 0.9316329 0.2496303
vn 0.4103647 -0.7897472 0.4559608
vn 0.4103647 -0.8808486 0.2360227
vn 0 0.9659258 -0.258819
vn 0 0.8660254 -0.5
vn 0 0.7071068 -0.7071068
vn 0.4103647 0 0.9119215
vn 0.4103647 0.2360227 0.8808486
vn 0 0 -1
vn 0 0.258819 -0.9659258
vn -1 0 0
vn 0 -0.5 0.8660254
vn 0 -0.258819 0.9659258
vn 0 0 1
vn 0 0.258819 0.9659258
vn 0.4103647 -0.2360227 0.8808486
vn 0.4103647 -0.6448259 -0.6448259
vn 0.4103647 -0.4559608 -0.7897472
vn 0 0.5 0.8660254
vn 0 0.7071068 0.7071068
vn 0 -0.258819 -0.9659258
vn 0 -0.5 -0.8660254
vn 0 0.8660254 0.5
vn 0 0.9659258 0.258819
vn 0 -0.7071068 0.7071068
vn 0.4103647 0.8808486 0.2360227
vn 0.4103647 0.9119215 0
vn 0 1 0
vn 0 -0.8660254 -0.5
vn 0 -0.7071068 -0.7071068
vn 0.4103647 0 -0.9119215
vn 0.4103647 0.2360227 -0.8808486
vn 0 -1 0
vn 0 -0.9659258 -0.258819
vn 0 -0.9659258 0.258819
vn 0.4103647 0.4559608 -0.7897472
vn 0.4103647 -0.9119215 0
vn 0.4103647 0.8808486 -0.2360227
vn 0.4103647 -0.8808486 -0.2360227
vn 0.4103647 -0.7897472 -0.4559608
vn 0.4103647 0.7897472 -0.4559608
vn 0 -0.8660254 0.5
vn 0.4103647 -0.2360227 -0.8808486
vn 0.4103647 0.4559608 0.7897472
vn 0.4103647 0.6448259 0.6448259
vn 0 0.5 -0.8660254
vn 0.4103647 0.7897472 0.4559608
vn 0.4103647 -0.6448259 0.6448259
vn 0.4103647 -0.4559608 0.7897472
vn 0.4103647 0.6448259 -0.6448259

vt 2.559005 6.345927
vt 3.564817 5.840495
vt 0.8530015 2.637601
vt 1.607361 2.258527
vt -3.564817 -5.840495
vt -1.607361 -2.258527
vt -2.559005 -6.345927
vt -0.8530015 -2.637601
vt -6.064092 3.169555
vt -5.462371 4.120898
vt -2.541134 1.107786
vt -2.089843 1.821293
vt -3.564817 5.840495
vt -2.559005 6.345927
vt -1.607361 2.258527
vt -0.8530015 2.637601
vt 6.718751 -1.295251
vt 2.678241 -0.7152434
vt 6.840195 -0.1761567
vt 2.769324 0.1240773
vt -6.574593 -1.89579
vt -6.796448 -0.7922049
vt -2.60284 -0.9538212
vt -2.769231 -0.1261322
vt -6.795821 -0.7975648
vt -6.834624 0.3274305
vt -2.723595 -0.516316
vt -2.752697 0.3274305
vt 6.271625 2.736058
vt 6.635345 1.670775
vt 2.456416 1.284746
vt 2.729206 0.4857835
vt -6.718751 -1.295251
vt -6.840195 -0.1761567
vt -2.678241 -0.7152434
vt -2.769324 0.1240773
vt -6.064092 -3.169555
vt -2.541134 -1.107786
vt -5.462371 -4.120898
vt -2.089843 -1.821293
vt -2.769231 0.1261322
vt -6.796448 0.7922049
vt -2.60284 0.9538212
vt -6.574593 1.89579
vt 5.462371 4.120898
vt 6.064092 3.169555
vt 2.089843 1.821293
vt 2.541134 1.107786
vt 2.769231 0.1261322
vt 2.60284 0.9538212
vt 6.796448 0.7922049
vt 6.574593 1.89579
vt 6.271625 -2.736058
vt 2.456416 -1.284746
vt 6.635345 -1.670775
vt 2.729206 -0.4857835
vt 6.491346 6.750156E-14
vt 6.270159 -1.680084
vt 6.270159 1.680084
vt 5.62167 3.245673
vt 5.62167 -3.245673
vt 4.590075 -4.590075
vt 4.590075 4.590075
vt 4.312025 3.552714E-14
vt 4.165096 1.116034
vt 4.165096 -1.116034
vt 3.245673 5.62167
vt 3.734323 2.156013
vt 3.049062 3.049062
vt 3.245673 -5.62167
vt 3.734323 -2.156013
vt 3.049062 -3.049062
vt 1.680084 6.270159
vt 2.156013 3.734323
vt 1.116034 4.165096
vt 1.812978E-12 6.491346
vt 1.812978E-12 4.312025
vt 1.680084 -6.270159
vt 2.156013 -3.734323
vt 1.116034 -4.165096
vt -1.680084 6.270159
vt -1.116034 4.165096
vt -2.156013 3.734323
vt 1.812978E-12 -6.491346
vt 1.812978E-12 -4.312025
vt -1.116034 -4.165096
vt -1.680084 -6.270159
vt -2.156013 -3.734323
vt -3.245673 5.62167
vt -3.049062 3.049062
vt -3.734323 2.156013
vt -3.245673 -5.62167
vt -3.049062 -3.049062
vt -3.734323 -2.156013
vt -4.590075 4.590075
vt -4.590075 -4.590075
vt -4.165096 1.116034
vt -4.165096 -1.116034
vt -4.312025 4.973799E-14
vt -5.62167 3.245673
vt -5.62167 -3.245673
vt -6.270159 1.680084
vt -6.270159 -1.680084
vt -6.491346 6.217249E-14
vt 6.574593 -1.89579
vt 2.60284 -0.9538212
vt 6.796448 -0.7922049
vt 2.769231 -0.1261322
vt -6.635345 1.670775
vt -6.271625 2.736058
vt -2.729206 0.4857835
vt -2.456416 1.284746
vt 6.795821 -0.7975648
vt 2.723595 -0.516316
vt 6.834624 0.3274305
vt 2.752697 0.3274305
vt -6.635345 -1.670775
vt -2.729206 -0.4857835
vt -6.271625 -2.736058
vt -2.456416 -1.284746
vt 2.752697 -0.3274305
vt 2.723595 0.516316
vt 6.834624 -0.3274305
vt 6.795821 0.7975648
vt 3.234019 2.972079E-14
vt 3.123822 -0.8370256
vt 3.123822 0.8370256
vt 2.800742 1.617009
vt 2.800742 -1.617009
vt 2.286797 2.286797
vt 2.286797 -2.286797
vt 1.617009 2.800742
vt 1.617009 -2.800742
vt 0.8370256 3.123822
vt 0.8370256 -3.123822
vt 1.788564E-12 3.234019
vt 1.788564E-12 -3.234019
vt -0.8370256 3.123822
vt -0.8370256 -3.123822
vt -1.617009 2.800742
vt -1.617009 -2.800742
vt -2.286797 2.286797
vt -2.286797 -2.286797
vt -2.800742 1.617009
vt -2.800742 -1.617009
vt -3.123822 0.8370256
vt -3.123822 -0.8370256
vt -3.234019 4.037893E-14
vt -2.752697 -0.3274305
vt -6.834624 -0.3274305
vt -2.723595 0.516316
vt -6.795821 0.7975648
vt 2.559005 -6.345927
vt 0.8530015 -2.637601
vt 3.564817 -5.840495
vt 1.607361 -2.258527
vt 2.769324 -0.1240773
vt 2.678241 0.7152434
vt 6.840195 0.1761567
vt 6.718751 1.295251
vt -2.769324 -0.1240773
vt -6.840195 0.1761567
vt -2.678241 0.7152434
vt -6.718751 1.295251
vt 5.462371 -4.120898
vt 2.089843 -1.821293
vt 6.064092 -3.169555
vt 2.541134 -1.107786
vt 0.03472009 1.872246
vt 1.872564 0.003843261
vt -3.200859 -0.9860431
vt -1.038689 -3.184164
vt -1.968504 1.541648
vt 5.905512 1.541648
vt -1.968504 -1.541648
vt 5.905512 -1.541648
vt 1.26556 -1.38017
vt -3.051706 -1.38017
vt 1.405939 1.23687
vt -2.886554 1.6987
vt -11.81102 1.776357E-15
vt -11.40857 3.056918
vt -11.40857 -3.056918
vt -10.22865 -5.905512
vt -10.22865 5.905512
vt -8.351655 -8.351655
vt -8.351655 8.351655
vt -5.905512 -10.22865
vt -5.905512 10.22865
vt -3.056918 -11.40857
vt -3.056918 11.40857
vt -1.768157E-12 -11.81102
vt -1.768157E-12 11.81102
vt 3.056918 -11.40857
vt 3.056918 11.40857
vt 5.905512 -10.22865
vt 5.905512 10.22865
vt 8.351655 -8.351655
vt 8.351655 8.351655
vt 10.22865 -5.905512
vt 10.22865 5.905512
vt 11.40857 -3.056918
vt 11.40857 3.056918
vt 11.81102 0
vt 1.968504 -1.541648
vt -5.905512 -1.541648
vt 1.968504 1.541648
vt -5.905512 1.541648
vt -2.886554 -1.6987
vt -3.051706 1.38017
vt 1.405939 -1.23687
vt 1.26556 1.38017
vt 2.377916 -2.358663
vt -1.667747 -0.8515468
vt 3.297958 0.5841646
vt -0.8857109 1.649857
vt -0.8356296 -1.675779
vt -2.381196 2.355351
vt 1.658215 -0.8699625
vt 0.5527383 3.30337
vt 3.051706 -1.38017
vt -1.26556 -1.38017
vt 2.886554 1.6987
vt -1.405939 1.23687
vt -1.100949 -1.514735
vt -1.537086 1.069522
vt 3.188488 -1.025338
vt 2.675387 2.014965
vt -0.8356296 1.675779
vt 1.658215 0.8699625
vt -2.381196 -2.355351
vt 0.5527383 -3.30337
vt -1.658215 -0.8699625
vt -0.5527383 3.30337
vt 0.8356296 -1.675779
vt 2.381196 2.355351
vt -1.872564 0.003843261
vt -0.03472009 1.872246
vt 1.038689 -3.184164
vt 3.200859 -0.9860431
vt -1.872564 -0.003843261
vt 1.038689 3.184164
vt -0.03472009 -1.872246
vt 3.200859 0.9860431
vt 2.886554 -1.6987
vt -1.405939 -1.23687
vt 3.051706 1.38017
vt -1.26556 1.38017
vt 0.8857109 -1.649857
vt -3.297958 -0.5841646
vt 1.667747 0.8515468
vt -2.377916 2.358663
vt 1.100949 -1.514735
vt -3.188488 -1.025338
vt 1.537086 1.069522
vt -2.675387 2.014965
vt 0.03472009 -1.872246
vt -3.200859 0.9860431
vt 1.872564 -0.003843261
vt -1.038689 3.184164
vt -2.377916 -2.358663
vt -3.297958 0.5841646
vt 1.667747 -0.8515468
vt 0.8857109 1.649857
vt -1.658215 0.8699625
vt 0.8356296 1.675779
vt -0.5527383 -3.30337
vt 2.381196 -2.355351
vt -1.795989 0.5300323
vt 1.903153 2.756045
vt -0.5669055 -1.784693
vt 3.349134 0.03283872
vt -0.8857109 -1.649857
vt -1.667747 0.8515468
vt 3.297958 -0.5841646
vt 2.377916 2.358663
vt -1.795989 -0.5300323
vt -0.5669055 1.784693
vt 1.903153 -2.756045
vt 3.349134 -0.03283872
vt 10.03937 1.018333E-15
vt 9.697287 -2.59838
vt 9.697287 2.59838
vt 8.694349 5.019685
vt 8.694349 -5.019685
vt 7.098907 7.098907
vt 7.098907 -7.098907
vt 5.019685 8.694349
vt 5.019685 -8.694349
vt 2.59838 9.697287
vt 1.812978E-12 10.03937
vt 2.59838 -9.697287
vt -2.59838 9.697287
vt 1.812978E-12 -10.03937
vt -2.59838 -9.697287
vt -5.019685 8.694349
vt -5.019685 -8.694349
vt -7.098907 7.098907
vt -7.098907 -7.098907
vt -8.694349 5.019685
vt -8.694349 -5.019685
vt -9.697287 2.59838
vt -9.697287 -2.59838
vt -10.03937 -7.58024E-16
vt 0.5669055 -1.784693
vt -3.349134 0.03283872
vt 1.795989 0.5300323
vt -1.903153 2.756045
vt 2.675387 -2.014965
vt -1.537086 -1.069522
vt 3.188488 1.025338
vt -1.100949 1.514735
vt 0.5669055 1.784693
vt 1.795989 -0.5300323
vt -3.349134 -0.03283872
vt -1.903153 -2.756045
vt -2.675387 -2.014965
vt -3.188488 1.025338
vt 1.537086 -1.069522
vt 1.100949 1.514735

usemtl plastic

f 3/3/1 2/2/2 1/1/1
f 2/2/2 3/3/1 4/4/2
f 7/7/4 6/6/3 5/5/3
f 6/6/3 7/7/4 8/8/4
f 11/11/5 10/10/6 9/9/5
f 10/10/6 11/11/5 12/12/6
f 12/15/6 1/14/1 10/13/6
f 1/14/1 12/15/6 3/16/1
f 15/19/8 14/18/7 13/17/7
f 14/18/7 15/19/8 16/20/8
f 19/23/9 18/22/10 17/21/9
f 18/22/10 19/23/9 20/24/10
f 23/27/11 22/26/12 21/25/11
f 22/26/12 23/27/11 24/28/12
f 27/31/13 26/30/14 25/29/13
f 26/30/14 27/31/13 28/32/14
f 20/35/10 21/34/11 18/33/10
f 21/34/11 20/35/10 23/36/11
f 5/39/3 30/38/15 29/37/15
f 30/38/15 5/39/3 6/40/3
f 33/43/17 32/42/16 31/41/16
f 32/42/16 33/43/17 34/44/17
f 4/47/2 25/46/13 2/45/2
f 25/46/13 4/47/2 27/48/13
f 36/51/18 28/50/14 35/49/18
f 28/50/14 36/51/18 26/52/14
f 39/55/20 38/54/19 37/53/19
f 38/54/19 39/55/20 40/56/20
f 43/59/21 42/58/21 41/57/21
f 42/58/21 43/59/21 44/60/21
f 42/58/21 44/60/21 45/61/21
f 45/61/21 44/60/21 46/62/21
f 46/62/21 44/60/21 47/63/21
f 46/62/21 47/63/21 48/64/21
f 47/63/21 49/65/21 48/64/21
f 46/62/21 48/64/21 15/66/21
f 49/65/21 47/63/21 50/67/21
f 49/65/21 50/67/21 36/68/21
f 36/68/21 50/67/21 26/69/21
f 46/62/21 15/66/21 51/70/21
f 51/70/21 15/66/21 13/71/21
f 51/70/21 13/71/21 39/72/21
f 26/69/21 50/67/21 52/73/21
f 26/69/21 52/73/21 25/74/21
f 25/74/21 52/73/21 2/75/21
f 2/75/21 52/73/21 53/76/21
f 2/75/21 53/76/21 1/77/21
f 51/70/21 39/72/21 54/78/21
f 54/78/21 39/72/21 37/79/21
f 54/78/21 37/79/21 55/80/21
f 1/77/21 53/76/21 56/81/21
f 1/77/21 56/81/21 10/82/21
f 10/82/21 56/81/21 9/83/21
f 54/78/21 55/80/21 57/84/21
f 57/84/21 55/80/21 7/85/21
f 57/84/21 7/85/21 5/86/21
f 57/84/21 5/86/21 58/87/21
f 58/87/21 5/86/21 29/88/21
f 9/83/21 56/81/21 59/89/21
f 9/83/21 59/89/21 34/90/21
f 34/90/21 59/89/21 32/91/21
f 58/87/21 29/88/21 60/92/21
f 60/92/21 29/88/21 17/93/21
f 60/92/21 17/93/21 18/94/21
f 32/91/21 59/89/21 61/95/21
f 60/92/21 18/94/21 62/96/21
f 32/91/21 61/95/21 63/97/21
f 62/96/21 18/94/21 21/98/21
f 63/97/21 61/95/21 22/99/21
f 62/96/21 21/98/21 22/99/21
f 62/96/21 22/99/21 61/95/21
f 62/96/21 61/95/21 64/100/21
f 62/96/21 64/100/21 65/101/21
f 65/101/21 64/100/21 66/102/21
f 65/101/21 66/102/21 67/103/21
f 67/103/21 66/102/21 68/104/21
f 13/107/7 40/106/20 39/105/20
f 40/106/20 13/107/7 14/108/7
f 33/111/17 9/110/5 34/109/17
f 9/110/5 33/111/17 11/112/5
f 48/115/22 16/114/8 15/113/8
f 16/114/8 48/115/22 69/116/22
f 29/119/15 19/118/9 17/117/9
f 19/118/9 29/119/15 30/120/15
f 48/123/22 70/122/23 69/121/22
f 70/122/23 48/123/22 49/124/23
f 70/127/21 16/126/21 69/125/21
f 16/126/21 70/127/21 35/128/21
f 16/126/21 35/128/21 14/129/21
f 14/129/21 35/128/21 28/130/21
f 14/129/21 28/130/21 40/131/21
f 40/131/21 28/130/21 27/132/21
f 40/131/21 27/132/21 38/133/21
f 38/133/21 27/132/21 4/134/21
f 38/133/21 4/134/21 71/135/21
f 71/135/21 4/134/21 3/136/21
f 71/135/21 3/136/21 8/137/21
f 8/137/21 3/136/21 12/138/21
f 8/137/21 12/138/21 6/139/21
f 6/139/21 12/138/21 11/140/21
f 6/139/21 11/140/21 30/141/21
f 30/141/21 11/140/21 33/142/21
f 30/141/21 33/142/21 19/143/21
f 19/143/21 33/142/21 31/144/21
f 19/143/21 31/144/21 20/145/21
f 20/145/21 31/144/21 72/146/21
f 20/145/21 72/146/21 23/147/21
f 23/147/21 72/146/21 24/148/21
f 72/151/24 22/150/12 24/149/12
f 22/150/12 72/151/24 63/152/24
f 55/155/25 8/154/4 7/153/4
f 8/154/4 55/155/25 71/156/25
f 49/159/23 35/158/18 70/157/23
f 35/158/18 49/159/23 36/160/18
f 31/163/16 63/162/24 72/161/24
f 63/162/24 31/163/16 32/164/16
f 37/167/19 71/166/25 55/165/25
f 71/166/25 37/167/19 38/168/19

usemtl carTire

f 75/171/26 74/170/27 73/169/26
f 74/170/27 75/171/26 76/172/27
f 79/175/29 78/174/28 77/173/28
f 78/174/28 79/175/29 80/176/29
f 81/175/30 80/174/29 79/173/29
f 80/174/29 81/175/30 82/176/30
f 85/179/32 84/178/31 83/177/31
f 84/178/31 85/179/32 86/180/32
f 89/174/34 88/175/33 87/176/33
f 88/175/33 89/174/34 90/173/34
f 91/183/35 89/182/35 87/181/35
f 89/182/35 91/183/35 92/184/35
f 89/182/35 92/184/35 93/185/35
f 93/185/35 92/184/35 94/186/35
f 93/185/35 94/186/35 82/187/35
f 82/187/35 94/186/35 95/188/35
f 82/187/35 95/188/35 80/189/35
f 80/189/35 95/188/35 96/190/35
f 80/189/35 96/190/35 78/191/35
f 78/191/35 96/190/35 97/192/35
f 78/191/35 97/192/35 98/193/35
f 98/193/35 97/192/35 99/194/35
f 98/193/35 99/194/35 100/195/35
f 100/195/35 99/194/35 101/196/35
f 100/195/35 101/196/35 102/197/35
f 102/197/35 101/196/35 103/198/35
f 102/197/35 103/198/35 104/199/35
f 104/199/35 103/198/35 105/200/35
f 104/199/35 105/200/35 106/201/35
f 106/201/35 105/200/35 107/202/35
f 106/201/35 107/202/35 108/203/35
f 108/203/35 107/202/35 109/204/35
f 111/207/37 105/206/36 110/205/36
f 105/206/36 111/207/37 107/208/37
f 86/207/39 109/206/38 84/205/38
f 109/206/38 86/207/39 108/208/39
f 112/211/40 84/210/31 111/209/40
f 84/210/31 112/211/40 83/212/31
f 115/215/42 114/214/41 113/213/41
f 114/214/41 115/215/42 116/216/42
f 118/207/44 106/206/43 117/205/43
f 106/206/43 118/207/44 104/208/44
f 87/174/33 119/175/45 91/176/45
f 119/175/45 87/174/33 88/173/33
f 91/174/45 115/175/46 92/176/46
f 115/175/46 91/174/45 119/173/45
f 121/207/48 102/206/47 120/205/47
f 102/206/47 121/207/48 100/208/48
f 110/207/36 103/206/49 122/205/49
f 103/206/49 110/207/36 105/208/36
f 124/219/51 121/218/50 123/217/50
f 121/218/50 124/219/51 125/220/51
f 77/175/28 98/174/52 125/173/52
f 98/174/52 77/175/28 78/176/28
f 95/176/53 113/173/54 126/175/53
f 113/173/54 95/176/53 94/174/54
f 90/223/56 127/222/55 88/221/55
f 127/222/55 90/223/56 128/224/56
f 97/176/57 130/173/58 129/175/57
f 130/173/58 97/176/57 96/174/58
f 99/208/59 129/205/57 76/207/59
f 129/205/57 99/208/59 97/206/57
f 92/174/46 113/175/54 94/176/54
f 113/175/54 92/174/46 115/173/46
f 90/227/56 131/226/60 128/225/56
f 131/226/60 90/227/56 132/228/60
f 96/176/58 126/173/53 130/175/58
f 126/173/53 96/176/58 95/174/53
f 76/231/27 133/230/61 74/229/27
f 133/230/61 76/231/27 129/232/61
f 134/235/62 125/234/51 124/233/51
f 125/234/51 134/235/62 77/236/62
f 130/239/63 136/238/64 135/237/63
f 136/238/64 130/239/63 126/240/64
f 137/243/65 77/242/62 134/241/62
f 77/242/62 137/243/65 79/244/65
f 103/208/49 75/205/66 122/207/49
f 75/205/66 103/208/49 101/206/66
f 88/247/55 138/246/67 119/245/67
f 138/246/67 88/247/55 127/248/55
f 140/251/69 117/250/68 139/249/68
f 117/250/68 140/251/69 118/252/69
f 82/174/30 132/175/70 93/176/70
f 132/175/70 82/174/30 81/173/30
f 139/255/68 86/254/32 85/253/32
f 86/254/32 139/255/68 117/256/68
f 120/207/47 104/206/44 118/205/44
f 104/206/44 120/207/47 102/208/47
f 123/259/50 120/258/71 141/257/71
f 120/258/71 123/259/50 121/260/50
f 125/207/52 100/206/48 121/205/48
f 100/206/48 125/207/52 98/208/52
f 142/263/72 110/262/73 122/261/72
f 110/262/73 142/263/72 143/264/73
f 129/267/61 135/266/63 133/265/61
f 135/266/63 129/267/61 130/268/63
f 144/271/74 79/270/65 137/269/65
f 79/270/65 144/271/74 81/272/74
f 84/207/38 107/206/37 111/205/37
f 107/206/37 84/207/38 109/208/38
f 101/208/66 76/205/59 75/207/66
f 76/205/59 101/208/66 99/206/59
f 93/174/70 90/175/34 89/176/34
f 90/175/34 93/174/70 132/173/70
f 132/275/60 144/274/74 131/273/60
f 144/274/74 132/275/60 81/276/74
f 117/207/43 108/206/39 86/205/39
f 108/206/39 117/207/43 106/208/43
f 126/279/64 114/278/41 136/277/64
f 114/278/41 126/279/64 113/280/41
f 128/283/21 138/282/21 127/281/21
f 138/282/21 128/283/21 131/284/21
f 138/282/21 131/284/21 116/285/21
f 116/285/21 131/284/21 144/286/21
f 116/285/21 144/286/21 114/287/21
f 114/287/21 144/286/21 41/57/21
f 41/57/21 144/286/21 43/59/21
f 42/58/21 114/287/21 41/57/21
f 43/59/21 144/286/21 137/288/21
f 43/59/21 137/288/21 44/60/21
f 44/60/21 137/288/21 47/63/21
f 114/287/21 42/58/21 136/289/21
f 136/289/21 42/58/21 45/61/21
f 136/289/21 45/61/21 46/62/21
f 47/63/21 137/288/21 134/290/21
f 47/63/21 134/290/21 50/67/21
f 50/67/21 134/290/21 52/73/21
f 52/73/21 134/290/21 124/291/21
f 52/73/21 124/291/21 53/76/21
f 136/289/21 46/62/21 135/292/21
f 135/292/21 46/62/21 51/70/21
f 135/292/21 51/70/21 54/78/21
f 53/76/21 124/291/21 123/293/21
f 53/76/21 123/293/21 56/81/21
f 56/81/21 123/293/21 59/89/21
f 135/292/21 54/78/21 133/294/21
f 133/294/21 54/78/21 57/84/21
f 133/294/21 57/84/21 58/87/21
f 133/294/21 58/87/21 74/295/21
f 74/295/21 58/87/21 60/92/21
f 59/89/21 123/293/21 141/296/21
f 59/89/21 141/296/21 61/95/21
f 61/95/21 141/296/21 64/100/21
f 74/295/21 60/92/21 73/297/21
f 73/297/21 60/92/21 62/96/21
f 73/297/21 62/96/21 65/101/21
f 64/100/21 141/296/21 140/298/21
f 73/297/21 65/101/21 142/299/21
f 64/100/21 140/298/21 66/102/21
f 142/299/21 65/101/21 67/103/21
f 66/102/21 140/298/21 68/104/21
f 142/299/21 67/103/21 68/104/21
f 142/299/21 68/104/21 140/298/21
f 142/299/21 140/298/21 139/300/21
f 142/299/21 139/300/21 143/301/21
f 143/301/21 139/300/21 85/302/21
f 143/301/21 85/302/21 112/303/21
f 112/303/21 85/302/21 83/304/21
f 141/307/71 118/306/69 140/305/69
f 118/306/69 141/307/71 120/308/71
f 119/311/67 116/310/42 115/309/42
f 116/310/42 119/311/67 138/312/67
f 122/315/72 73/314/26 142/313/72
f 73/314/26 122/315/72 75/316/26
f 143/319/73 111/318/40 110/317/73
f 111/318/40 143/319/73 112/320/40

