# Created by Kenney (www.kenney.nl)

mtllib wheelRacing.mtl

g wheelRacing

v 0.05 0.2897778 0.07764571
v -0.15 0.2897778 0.07764571
v 0.05 0.3 -9.096084E-14
v -0.15 0.3 9.023893E-14
v 0.05 -0.15 -0.2598076
v 0.15 -0.1275 -0.2208365
v 0.05 -0.07764571 -0.2897778
v 0.15 -0.06599885 -0.2463111
v -0.15 0.07764571 -0.2897778
v 0.05 0.07764571 -0.2897778
v -0.15 0.15 -0.2598076
v 0.05 0.15 -0.2598076
v 0.05 -0.07764571 0.2897778
v 0.05 0 0.3
v 0.15 -0.06599885 0.2463111
v 0.15 0 0.255
v -0.15 -0.07764571 0.2897778
v -0.15 0 0.3
v 0.05 0.2897778 -0.07764571
v -0.15 0.2897778 -0.07764571
v 0.05 0.2598076 -0.15
v -0.15 0.2598076 -0.15
v -0.15 -0.15 -0.2598076
v -0.15 -0.07764571 -0.2897778
v 0.15 0.06599885 -0.2463111
v 0.15 0.1275 -0.2208365
v 0.05 0.2598076 0.15
v -0.15 0.2598076 0.15
v -0.15 0.212132 -0.212132
v 0.05 0.212132 -0.212132
v 0.15 -0.2463111 0.06599885
v 0.15 -0.255 -1.819217E-13
v 0.05 -0.2897778 0.07764571
v 0.05 -0.3 -9.096084E-14
v 0.15 0.255 -1.819217E-13
v 0.15 0.2463111 -0.06599885
v 0.05 -0.2598076 0.15
v -0.15 -0.2598076 0.15
v -0.15 -0.2897778 0.07764571
v -0.15 4.511946E-17 -0.3
v 0.05 4.511946E-17 -0.3
v 0.15 -0.2208365 0.1275
v 0.15 -0.2208365 -0.1275
v 0.15 -0.1803122 -0.1803122
v 0.05 -0.2598076 -0.15
v 0.05 -0.212132 -0.212132
v 0.05 0.15 0.2598076
v -0.15 0.15 0.2598076
v 0.05 0.212132 0.212132
v -0.15 0.212132 0.212132
v 0.15 0.2208365 -0.1275
v 0.15 0.1803122 -0.1803122
v 0.05 -0.212132 0.212132
v 0.05 -0.15 0.2598076
v 0.15 -0.1803122 0.1803122
v 0.15 -0.1275 0.2208365
v -0.15 -0.212132 0.212132
v 0.05 -0.2897778 -0.07764571
v -0.15 -0.2897778 -0.07764571
v -0.15 -0.2598076 -0.15
v 0.15 4.511946E-17 -0.255
v 0.05 0.07764571 0.2897778
v -0.15 0.07764571 0.2897778
v 0.15 0.06599885 0.2463111
v 0.15 0.1275 0.2208365
v -0.15 -0.212132 -0.212132
v 0.15 0.1803122 0.1803122
v 0.15 0.2208365 0.1275
v 0.15 0.2463111 0.06599885
v 0.15 -0.2463111 -0.06599885
v -0.15 -0.3 9.023893E-14
v -0.15 -0.15 0.2598076
v 0.15 0.07744618 0.07744618
v 0.15 0.09485181 0.05476272
v 0.05 0.05808463 0.05808463
v 0.05 0.07113886 0.04107204
v 0.05 1.037748E-15 0.08214407
v 0.15 1.263345E-15 0.1095254
v 0.05 0.02126045 0.07934508
v 0.15 0.02834727 0.1057934
v 0.15 -0.1057934 -0.02834727
v 0.05 -0.07934508 -0.02126045
v 0.15 -0.09485181 -0.05476272
v 0.05 -0.07113886 -0.04107204
v 0.05 7.670309E-16 -0.08214407
v 0.05 -0.02126045 -0.07934508
v 0.05 0.02126045 -0.07934508
v 0.05 0.04107204 -0.07113886
v 0.05 -0.04107204 -0.07113886
v 0.05 0.05808463 -0.05808463
v 0.05 -0.05808463 -0.05808463
v 0.05 0.07113886 -0.04107204
v 0.05 0.07934508 -0.02126045
v 0.05 0.08214407 -9.096084E-14
v 0.05 -0.08214407 -9.096084E-14
v 0.05 0.07934508 0.02126045
v 0.05 -0.07934508 0.02126045
v 0.05 -0.07113886 0.04107204
v 0.05 -0.05808463 0.05808463
v 0.05 0.04107204 0.07113886
v 0.05 -0.04107204 0.07113886
v 0.05 -0.02126045 0.07934508
v 0.15 -0.05476272 0.09485181
v 0.15 -0.02834727 0.1057934
v 0.15 1.71454E-15 -0.1648802
v 0.15 -0.04267413 -0.159262
v 0.15 0.04267413 -0.159262
v 0.15 0.08244009 -0.1427904
v 0.15 -0.08244009 -0.1427904
v 0.15 -0.1165879 -0.1165879
v 0.15 0.1165879 -0.1165879
v 0.15 9.023893E-16 -0.1095254
v 0.15 0.02834727 -0.1057934
v 0.15 -0.02834727 -0.1057934
v 0.15 0.1427904 -0.08244009
v 0.15 0.05476272 -0.09485181
v 0.15 0.07744618 -0.07744618
v 0.15 -0.1427904 -0.08244009
v 0.15 -0.05476272 -0.09485181
v 0.15 -0.07744618 -0.07744618
v 0.15 0.159262 -0.04267413
v 0.15 0.09485181 -0.05476272
v 0.15 0.1057934 -0.02834727
v 0.15 0.1648802 -1.819217E-13
v 0.15 0.1095254 -1.819217E-13
v 0.15 -0.159262 -0.04267413
v 0.15 0.159262 0.04267413
v 0.15 0.1057934 0.02834727
v 0.15 -0.1648802 -1.819217E-13
v 0.15 -0.1095254 -1.819217E-13
v 0.15 -0.1057934 0.02834727
v 0.15 -0.159262 0.04267413
v 0.15 -0.09485181 0.05476272
v 0.15 0.1427904 0.08244009
v 0.15 0.05476272 0.09485181
v 0.15 -0.1427904 0.08244009
v 0.15 -0.07744618 0.07744618
v 0.15 0.1165879 0.1165879
v 0.15 -0.1165879 0.1165879
v 0.15 0.08244009 0.1427904
v 0.15 -0.08244009 0.1427904
v 0.15 0.04267413 0.159262
v 0.15 -0.04267413 0.159262
v 0.15 1.579181E-15 0.1648802

vn 0 0.9659258 0.258819
vn 0 1 0
vn 0.4103647 -0.4559608 -0.7897472
vn 0.4103647 -0.2360227 -0.8808486
vn 0 0.258819 -0.9659258
vn 0 0.5 -0.8660254
vn 0.4103647 -0.2360227 0.8808486
vn 0.4103647 0 0.9119215
vn 0 -0.258819 0.9659258
vn 0 0 1
vn 0 0.9659258 -0.258819
vn 0 0.8660254 -0.5
vn 0 -0.5 -0.8660254
vn 0 -0.258819 -0.9659258
vn 0.4103647 0.2360227 -0.8808486
vn 0.4103647 0.4559608 -0.7897472
vn 0 0.8660254 0.5
vn 0 0.7071068 -0.7071068
vn 0.4103647 -0.8808486 0.2360227
vn 0.4103647 -0.9119215 0
vn 0.4103647 0.9119215 0
vn 0.4103647 0.8808486 -0.2360227
vn 0 -0.8660254 0.5
vn 0 -0.9659258 0.258819
vn 0 0 -1
vn 0.4103647 -0.7897472 0.4559608
vn 0.4103647 -0.7897472 -0.4559608
vn 0.4103647 -0.6448259 -0.6448259
vn 0 0.5 0.8660254
vn 0 0.7071068 0.7071068
vn 0.4103647 0.7897472 -0.4559608
vn 0.4103647 0.6448259 -0.6448259
vn 0.4103647 -0.6448259 0.6448259
vn 0.4103647 -0.4559608 0.7897472
vn 0 -0.7071068 0.7071068
vn 0 -0.9659258 -0.258819
vn 0 -0.8660254 -0.5
vn 0.4103647 0 -0.9119215
vn 0 0.258819 0.9659258
vn 0.4103647 0.2360227 0.8808486
vn 0.4103647 0.4559608 0.7897472
vn 0 -0.7071068 -0.7071068
vn 0.4103647 0.6448259 0.6448259
vn 0.4103647 0.7897472 0.4559608
vn 0.4103647 0.8808486 0.2360227
vn 0.4103647 -0.8808486 -0.2360227
vn -1 0 0
vn 0 -0.5 0.8660254
vn 0 -1 0
vn 0.2640925 -0.6820027 -0.6820027
vn 0.2640925 -0.8352792 -0.4822487
vn 0.2640925 0 -0.9644974
vn 0.2640924 -0.2496303 -0.9316329
vn 0.2640924 0.9316329 0.2496303
vn 0.2640925 0.8352792 0.4822487
vn 1 0 0
vn 0.2640925 0.4822487 -0.8352792
vn 0.2640924 0.2496303 -0.9316329
vn 0.2640925 -0.4822487 0.8352792
vn 0.2640925 -0.6820027 0.6820027
vn 0.2640925 0.6820027 0.6820027
vn 0.2640925 0.6820027 -0.6820027
vn 0.2640925 0.8352792 -0.4822487
vn 0.2640925 0.4822487 0.8352792
vn 0.2640924 0.2496303 0.9316329
vn 0.2640925 0 0.9644974
vn 0.2640924 -0.9316329 -0.2496303
vn 0.2640925 -0.9644974 0
vn 0.2640924 -0.2496303 0.9316329
vn 0.2640925 -0.4822487 -0.8352792
vn 0.2640924 0.9316329 -0.2496303
vn 0.2640925 0.9644974 0
vn 0.2640924 -0.9316329 0.2496303
vn 0.2640925 -0.8352792 0.4822487

vt 1.968504 -1.541648
vt -5.905512 -1.541648
vt 1.968504 1.541648
vt -5.905512 1.541648
vt 2.675387 -2.014965
vt -1.537086 -1.069522
vt 3.188488 1.025338
vt -1.100949 1.514735
vt 5.905512 -1.541648
vt -1.968504 -1.541648
vt 5.905512 1.541648
vt -1.968504 1.541648
vt -2.886554 -1.6987
vt -3.051706 1.38017
vt 1.405939 -1.23687
vt 1.26556 1.38017
vt -1.100949 -1.514735
vt -1.537086 1.069522
vt 3.188488 -1.025338
vt 2.675387 2.014965
vt -0.8356296 1.675779
vt 1.658215 0.8699625
vt -2.381196 -2.355351
vt 0.5527383 -3.30337
vt -1.658215 -0.8699625
vt -0.5527383 3.30337
vt 0.8356296 -1.675779
vt 2.381196 2.355351
vt 0.03472009 1.872246
vt 1.872564 0.003843261
vt -3.200859 -0.9860431
vt -1.038689 -3.184164
vt -1.795989 -0.5300323
vt -0.5669055 1.784693
vt 1.903153 -2.756045
vt 3.349134 -0.03283872
vt -1.795989 0.5300323
vt 1.903153 2.756045
vt -0.5669055 -1.784693
vt 3.349134 0.03283872
vt -2.377916 -2.358663
vt -3.297958 0.5841646
vt 1.667747 -0.8515468
vt 0.8857109 1.649857
vt 2.886554 -1.6987
vt -1.405939 -1.23687
vt 3.051706 1.38017
vt -1.26556 1.38017
vt -1.872564 -0.003843261
vt 1.038689 3.184164
vt -0.03472009 -1.872246
vt 3.200859 0.9860431
vt 1.100949 -1.514735
vt -3.188488 -1.025338
vt 1.537086 1.069522
vt -2.675387 2.014965
vt 3.051706 -1.38017
vt -1.26556 -1.38017
vt 2.886554 1.6987
vt -1.405939 1.23687
vt 0.5669055 -1.784693
vt -3.349134 0.03283872
vt 1.795989 0.5300323
vt -1.903153 2.756045
vt 1.26556 -1.38017
vt -3.051706 -1.38017
vt 1.405939 1.23687
vt -2.886554 1.6987
vt -0.8857109 -1.649857
vt -1.667747 0.8515468
vt 3.297958 -0.5841646
vt 2.377916 2.358663
vt -2.675387 -2.014965
vt -3.188488 1.025338
vt 1.537086 -1.069522
vt 1.100949 1.514735
vt 2.377916 -2.358663
vt -1.667747 -0.8515468
vt 3.297958 0.5841646
vt -0.8857109 1.649857
vt -0.8356296 -1.675779
vt -2.381196 2.355351
vt 1.658215 -0.8699625
vt 0.5527383 3.30337
vt -1.658215 0.8699625
vt 0.8356296 1.675779
vt -0.5527383 -3.30337
vt 2.381196 -2.355351
vt -11.81102 1.776357E-15
vt -11.40857 3.056918
vt -11.40857 -3.056918
vt -10.22865 -5.905512
vt -10.22865 5.905512
vt -8.351655 -8.351655
vt -8.351655 8.351655
vt -5.905512 -10.22865
vt -5.905512 10.22865
vt -3.056918 -11.40857
vt -3.056918 11.40857
vt -1.796956E-12 -11.81102
vt -1.796956E-12 11.81102
vt 3.056918 -11.40857
vt 3.056918 11.40857
vt 5.905512 -10.22865
vt 5.905512 10.22865
vt 8.351655 -8.351655
vt 8.351655 8.351655
vt 10.22865 -5.905512
vt 10.22865 5.905512
vt 11.40857 -3.056918
vt 11.40857 3.056918
vt 11.81102 0
vt 0.8857109 -1.649857
vt -3.297958 -0.5841646
vt 1.667747 0.8515468
vt -2.377916 2.358663
vt 0.03472009 -1.872246
vt -3.200859 0.9860431
vt 1.872564 -0.003843261
vt -1.038689 3.184164
vt -1.872564 0.003843261
vt -0.03472009 1.872246
vt 1.038689 -3.184164
vt 3.200859 -0.9860431
vt 0.5669055 1.784693
vt 1.795989 -0.5300323
vt -3.349134 -0.03283872
vt -1.903153 -2.756045
vt -6.635345 1.670775
vt -6.271625 2.736058
vt -2.729206 0.4857835
vt -2.456416 1.284746
vt -2.752697 -0.3274305
vt -6.834624 -0.3274305
vt -2.723595 0.516316
vt -6.795821 0.7975648
vt 5.462371 -4.120898
vt 2.089843 -1.821293
vt 6.064092 -3.169555
vt 2.541134 -1.107786
vt 3.234019 2.972079E-14
vt 3.123822 -0.8370256
vt 3.123822 0.8370256
vt 2.800742 1.617009
vt 2.800742 -1.617009
vt 2.286797 2.286797
vt 2.286797 -2.286797
vt 1.617009 2.800742
vt 1.617009 -2.800742
vt 0.8370256 3.123822
vt 0.8370256 -3.123822
vt 1.797912E-12 3.234019
vt 1.797912E-12 -3.234019
vt -0.8370256 3.123822
vt -0.8370256 -3.123822
vt -1.617009 2.800742
vt -1.617009 -2.800742
vt -2.286797 2.286797
vt -2.286797 -2.286797
vt -2.800742 1.617009
vt -2.800742 -1.617009
vt -3.123822 0.8370256
vt -3.123822 -0.8370256
vt -3.234019 4.037893E-14
vt -6.718751 -1.295251
vt -6.840195 -0.1761567
vt -2.678241 -0.7152434
vt -2.769324 0.1240773
vt 6.491346 6.750156E-14
vt 6.270159 -1.680084
vt 6.270159 1.680084
vt 5.62167 3.245673
vt 5.62167 -3.245673
vt 4.590075 -4.590075
vt 4.590075 4.590075
vt 4.312025 3.552714E-14
vt 4.165096 1.116034
vt 4.165096 -1.116034
vt 3.245673 5.62167
vt 3.734323 2.156013
vt 3.049062 3.049062
vt 3.245673 -5.62167
vt 3.734323 -2.156013
vt 3.049062 -3.049062
vt 1.680084 6.270159
vt 2.156013 3.734323
vt 1.116034 4.165096
vt 1.812601E-12 6.491346
vt 1.812601E-12 4.312025
vt 1.680084 -6.270159
vt 2.156013 -3.734323
vt 1.116034 -4.165096
vt -1.680084 6.270159
vt -1.116034 4.165096
vt -2.156013 3.734323
vt 1.812601E-12 -6.491346
vt 1.812601E-12 -4.312025
vt -1.116034 -4.165096
vt -1.680084 -6.270159
vt -2.156013 -3.734323
vt -3.245673 5.62167
vt -3.049062 3.049062
vt -3.734323 2.156013
vt -3.245673 -5.62167
vt -3.049062 -3.049062
vt -3.734323 -2.156013
vt -4.590075 4.590075
vt -4.590075 -4.590075
vt -4.165096 1.116034
vt -4.165096 -1.116034
vt -4.312025 4.973799E-14
vt -5.62167 3.245673
vt -5.62167 -3.245673
vt -6.270159 1.680084
vt -6.270159 -1.680084
vt -6.491346 6.217249E-14
vt 2.769231 0.1261322
vt 2.60284 0.9538212
vt 6.796448 0.7922049
vt 6.574593 1.89579
vt 6.271625 -2.736058
vt 2.456416 -1.284746
vt 6.635345 -1.670775
vt 2.729206 -0.4857835
vt -6.574593 -1.89579
vt -6.796448 -0.7922049
vt -2.60284 -0.9538212
vt -2.769231 -0.1261322
vt -6.635345 -1.670775
vt -2.729206 -0.4857835
vt -6.271625 -2.736058
vt -2.456416 -1.284746
vt 6.718751 -1.295251
vt 2.678241 -0.7152434
vt 6.840195 -0.1761567
vt 2.769324 0.1240773
vt 6.795821 -0.7975648
vt 2.723595 -0.516316
vt 6.834624 0.3274305
vt 2.752697 0.3274305
vt -3.564817 5.840495
vt -2.559005 6.345927
vt -1.607361 2.258527
vt -0.8530015 2.637601
vt 2.769324 -0.1240773
vt 2.678241 0.7152434
vt 6.840195 0.1761567
vt 6.718751 1.295251
vt 2.752697 -0.3274305
vt 2.723595 0.516316
vt 6.834624 -0.3274305
vt 6.795821 0.7975648
vt 6.574593 -1.89579
vt 2.60284 -0.9538212
vt 6.796448 -0.7922049
vt 2.769231 -0.1261322
vt -6.064092 3.169555
vt -5.462371 4.120898
vt -2.541134 1.107786
vt -2.089843 1.821293
vt -2.769324 -0.1240773
vt -6.840195 0.1761567
vt -2.678241 0.7152434
vt -6.718751 1.295251
vt -3.564817 -5.840495
vt -1.607361 -2.258527
vt -2.559005 -6.345927
vt -0.8530015 -2.637601
vt -6.064092 -3.169555
vt -2.541134 -1.107786
vt -5.462371 -4.120898
vt -2.089843 -1.821293
vt 2.559005 -6.345927
vt 0.8530015 -2.637601
vt 3.564817 -5.840495
vt 1.607361 -2.258527
vt 2.559005 6.345927
vt 3.564817 5.840495
vt 0.8530015 2.637601
vt 1.607361 2.258527
vt -2.769231 0.1261322
vt -6.796448 0.7922049
vt -2.60284 0.9538212
vt -6.574593 1.89579
vt 5.462371 4.120898
vt 6.064092 3.169555
vt 2.089843 1.821293
vt 2.541134 1.107786
vt -6.795821 -0.7975648
vt -6.834624 0.3274305
vt -2.723595 -0.516316
vt -2.752697 0.3274305
vt 6.271625 2.736058
vt 6.635345 1.670775
vt 2.456416 1.284746
vt 2.729206 0.4857835
vt 10.03937 1.776357E-15
vt 9.697287 -2.59838
vt 9.697287 2.59838
vt 8.694349 5.019685
vt 8.694349 -5.019685
vt 7.098907 7.098907
vt 7.098907 -7.098907
vt 5.019685 8.694349
vt 5.019685 -8.694349
vt 2.59838 9.697287
vt 1.826207E-12 10.03937
vt 2.59838 -9.697287
vt -2.59838 9.697287
vt 1.826207E-12 -10.03937
vt -2.59838 -9.697287
vt -5.019685 8.694349
vt -5.019685 -8.694349
vt -7.098907 7.098907
vt -7.098907 -7.098907
vt -8.694349 5.019685
vt -8.694349 -5.019685
vt -9.697287 2.59838
vt -9.697287 -2.59838
vt -10.03937 -1.029444E-28

usemtl carTire

f 3/3/2 2/2/1 1/1/1
f 2/2/1 3/3/2 4/4/2
f 7/7/4 6/6/3 5/5/3
f 6/6/3 7/7/4 8/8/4
f 11/11/6 10/10/5 9/9/5
f 10/10/5 11/11/6 12/12/6
f 15/15/7 14/14/8 13/13/7
f 14/14/8 15/15/7 16/16/8
f 14/3/10 17/2/9 13/1/9
f 17/2/9 14/3/10 18/4/10
f 21/10/12 20/11/11 19/12/11
f 20/11/11 21/10/12 22/9/12
f 24/11/14 5/10/13 23/9/13
f 5/10/13 24/11/14 7/12/14
f 10/19/15 26/18/16 25/17/15
f 26/18/16 10/19/15 12/20/16
f 1/3/1 28/2/17 27/1/17
f 28/2/17 1/3/1 2/4/1
f 29/11/18 12/10/6 11/9/6
f 12/10/6 29/11/18 30/12/18
f 33/23/19 32/22/20 31/21/19
f 32/22/20 33/23/19 34/24/20
f 36/27/22 3/26/21 35/25/21
f 3/26/21 36/27/22 19/28/22
f 38/4/23 33/1/24 37/3/23
f 33/1/24 38/4/23 39/2/24
f 9/11/5 41/10/25 40/9/25
f 41/10/25 9/11/5 10/12/5
f 37/31/26 31/30/19 42/29/26
f 31/30/19 37/31/26 33/32/19
f 45/35/27 44/34/28 43/33/27
f 44/34/28 45/35/27 46/36/28
f 49/3/30 48/2/29 47/1/29
f 48/2/29 49/3/30 50/4/30
f 52/39/32 21/38/31 51/37/31
f 21/38/31 52/39/32 30/40/32
f 55/43/33 54/42/34 53/41/33
f 54/42/34 55/43/33 56/44/34
f 57/4/35 37/1/23 53/3/35
f 37/1/23 57/4/35 38/2/23
f 59/9/36 45/12/37 58/10/36
f 45/12/37 59/9/36 60/11/37
f 41/47/38 8/46/4 7/45/4
f 8/46/4 41/47/38 61/48/38
f 51/51/31 19/50/22 36/49/22
f 19/50/22 51/51/31 21/52/31
f 62/3/39 18/2/10 14/1/10
f 18/2/10 62/3/39 63/4/39
f 65/55/41 62/54/40 64/53/40
f 62/54/40 65/55/41 47/56/41
f 23/11/13 46/10/42 66/9/42
f 46/10/42 23/11/13 5/12/13
f 10/59/15 61/58/38 41/57/38
f 61/58/38 10/59/15 25/60/15
f 68/63/44 49/62/43 67/61/43
f 49/62/43 68/63/44 27/64/44
f 64/67/40 14/66/8 16/65/8
f 14/66/8 64/67/40 62/68/40
f 12/71/16 52/70/32 26/69/16
f 52/70/32 12/71/16 30/72/32
f 56/75/34 13/74/7 54/73/34
f 13/74/7 56/75/34 15/76/7
f 40/11/25 7/10/14 24/9/14
f 7/10/14 40/11/25 41/12/25
f 60/9/37 46/12/42 45/10/37
f 46/12/42 60/9/37 66/11/42
f 47/3/29 63/2/39 62/1/39
f 63/2/39 47/3/29 48/4/29
f 5/79/3 44/78/28 46/77/28
f 44/78/28 5/79/3 6/80/3
f 35/83/21 1/82/45 69/81/45
f 1/82/45 35/83/21 3/84/21
f 34/87/20 70/86/46 32/85/20
f 70/86/46 34/87/20 58/88/46
f 24/91/47 9/90/47 40/89/47
f 9/90/47 24/91/47 23/92/47
f 9/90/47 23/92/47 11/93/47
f 11/93/47 23/92/47 66/94/47
f 11/93/47 66/94/47 29/95/47
f 29/95/47 66/94/47 60/96/47
f 29/95/47 60/96/47 22/97/47
f 22/97/47 60/96/47 59/98/47
f 22/97/47 59/98/47 20/99/47
f 20/99/47 59/98/47 71/100/47
f 20/99/47 71/100/47 4/101/47
f 4/101/47 71/100/47 39/102/47
f 4/101/47 39/102/47 2/103/47
f 2/103/47 39/102/47 38/104/47
f 2/103/47 38/104/47 28/105/47
f 28/105/47 38/104/47 57/106/47
f 28/105/47 57/106/47 50/107/47
f 50/107/47 57/106/47 72/108/47
f 50/107/47 72/108/47 48/109/47
f 48/109/47 72/108/47 17/110/47
f 48/109/47 17/110/47 63/111/47
f 63/111/47 17/110/47 18/112/47
f 54/3/48 57/2/35 53/1/35
f 57/2/35 54/3/48 72/4/48
f 30/10/18 22/11/12 21/12/12
f 22/11/12 30/10/18 29/9/18
f 67/115/43 47/114/41 65/113/41
f 47/114/41 67/115/43 49/116/43
f 39/4/24 34/1/49 33/3/24
f 34/1/49 39/4/24 71/2/49
f 19/10/11 4/11/2 3/12/2
f 4/11/2 19/10/11 20/9/11
f 69/119/45 27/118/44 68/117/44
f 27/118/44 69/119/45 1/120/45
f 58/123/46 43/122/27 70/121/46
f 43/122/27 58/123/46 45/124/27
f 13/3/9 72/2/48 54/1/48
f 72/2/48 13/3/9 17/4/9
f 71/9/49 58/12/36 34/10/49
f 58/12/36 71/9/49 59/11/36
f 53/127/33 42/126/26 55/125/33
f 42/126/26 53/127/33 37/128/26
f 27/3/17 50/2/30 49/1/30
f 50/2/30 27/3/17 28/4/17

usemtl plastic

f 75/131/50 74/130/51 73/129/50
f 74/130/51 75/131/50 76/132/51
f 79/135/53 78/134/52 77/133/52
f 78/134/52 79/135/53 80/136/53
f 83/139/55 82/138/54 81/137/54
f 82/138/54 83/139/55 84/140/55
f 87/143/56 86/142/56 85/141/56
f 86/142/56 87/143/56 88/144/56
f 86/142/56 88/144/56 89/145/56
f 89/145/56 88/144/56 90/146/56
f 89/145/56 90/146/56 91/147/56
f 91/147/56 90/146/56 92/148/56
f 91/147/56 92/148/56 84/149/56
f 84/149/56 92/148/56 93/150/56
f 84/149/56 93/150/56 82/151/56
f 82/151/56 93/150/56 94/152/56
f 82/151/56 94/152/56 95/153/56
f 95/153/56 94/152/56 96/154/56
f 95/153/56 96/154/56 97/155/56
f 97/155/56 96/154/56 76/156/56
f 97/155/56 76/156/56 98/157/56
f 98/157/56 76/156/56 75/158/56
f 98/157/56 75/158/56 99/159/56
f 99/159/56 75/158/56 100/160/56
f 99/159/56 100/160/56 101/161/56
f 101/161/56 100/160/56 79/162/56
f 101/161/56 79/162/56 102/163/56
f 102/163/56 79/162/56 77/164/56
f 101/167/57 104/166/58 103/165/57
f 104/166/58 101/167/57 102/168/58
f 107/171/56 106/170/56 105/169/56
f 106/170/56 107/171/56 108/172/56
f 106/170/56 108/172/56 109/173/56
f 109/173/56 108/172/56 110/174/56
f 110/174/56 108/172/56 111/175/56
f 110/174/56 111/175/56 112/176/56
f 111/175/56 113/177/56 112/176/56
f 110/174/56 112/176/56 114/178/56
f 113/177/56 111/175/56 115/179/56
f 113/177/56 115/179/56 116/180/56
f 116/180/56 115/179/56 117/181/56
f 110/174/56 114/178/56 118/182/56
f 118/182/56 114/178/56 119/183/56
f 118/182/56 119/183/56 120/184/56
f 117/181/56 115/179/56 121/185/56
f 117/181/56 121/185/56 122/186/56
f 122/186/56 121/185/56 123/187/56
f 123/187/56 121/185/56 124/188/56
f 123/187/56 124/188/56 125/189/56
f 118/182/56 120/184/56 126/190/56
f 126/190/56 120/184/56 83/191/56
f 126/190/56 83/191/56 81/192/56
f 125/189/56 124/188/56 127/193/56
f 125/189/56 127/193/56 128/194/56
f 128/194/56 127/193/56 74/195/56
f 126/190/56 81/192/56 129/196/56
f 129/196/56 81/192/56 130/197/56
f 129/196/56 130/197/56 131/198/56
f 129/196/56 131/198/56 132/199/56
f 132/199/56 131/198/56 133/200/56
f 74/195/56 127/193/56 134/201/56
f 74/195/56 134/201/56 73/202/56
f 73/202/56 134/201/56 135/203/56
f 132/199/56 133/200/56 136/204/56
f 136/204/56 133/200/56 137/205/56
f 136/204/56 137/205/56 103/206/56
f 135/203/56 134/201/56 138/207/56
f 136/204/56 103/206/56 139/208/56
f 135/203/56 138/207/56 80/209/56
f 139/208/56 103/206/56 104/210/56
f 80/209/56 138/207/56 78/211/56
f 139/208/56 104/210/56 78/211/56
f 139/208/56 78/211/56 138/207/56
f 139/208/56 138/207/56 140/212/56
f 139/208/56 140/212/56 141/213/56
f 141/213/56 140/212/56 142/214/56
f 141/213/56 142/214/56 143/215/56
f 143/215/56 142/214/56 144/216/56
f 116/219/59 90/218/60 88/217/59
f 90/218/60 116/219/59 117/220/60
f 120/223/61 84/222/55 83/221/55
f 84/222/55 120/223/61 91/224/61
f 99/227/62 103/226/57 137/225/62
f 103/226/57 99/227/62 101/228/57
f 133/231/63 99/230/62 137/229/62
f 99/230/62 133/231/63 98/232/63
f 114/235/65 89/234/64 119/233/64
f 89/234/64 114/235/65 86/236/65
f 112/239/66 86/238/65 114/237/65
f 86/238/65 112/239/66 85/240/66
f 96/243/67 125/242/68 128/241/67
f 125/242/68 96/243/67 94/244/68
f 113/247/69 88/246/59 87/245/69
f 88/246/59 113/247/69 116/248/59
f 112/251/66 87/250/69 85/249/66
f 87/250/69 112/251/66 113/252/69
f 119/255/64 91/254/61 120/253/61
f 91/254/61 119/255/64 89/256/64
f 76/259/51 128/258/67 74/257/51
f 128/258/67 76/259/51 96/260/67
f 100/263/70 80/262/53 79/261/53
f 80/262/53 100/263/70 135/264/70
f 130/267/72 97/266/71 131/265/71
f 97/266/71 130/267/72 95/268/72
f 131/271/71 98/270/63 133/269/63
f 98/270/63 131/271/71 97/272/71
f 81/275/54 95/274/72 130/273/72
f 95/274/72 81/275/54 82/276/54
f 94/279/68 123/278/73 125/277/68
f 123/278/73 94/279/68 93/280/73
f 75/283/50 135/282/70 100/281/70
f 135/282/70 75/283/50 73/284/50
f 93/287/73 122/286/74 123/285/73
f 122/286/74 93/287/73 92/288/74
f 102/291/58 78/290/52 104/289/58
f 78/290/52 102/291/58 77/292/52
f 92/295/74 117/294/60 122/293/74
f 117/294/60 92/295/74 90/296/60

usemtl paintYellow

f 25/299/56 8/298/56 61/297/56
f 8/298/56 25/299/56 26/300/56
f 8/298/56 26/300/56 6/301/56
f 6/301/56 26/300/56 52/302/56
f 6/301/56 52/302/56 44/303/56
f 44/303/56 52/302/56 105/169/56
f 105/169/56 52/302/56 107/171/56
f 106/170/56 44/303/56 105/169/56
f 107/171/56 52/302/56 51/304/56
f 107/171/56 51/304/56 108/172/56
f 108/172/56 51/304/56 111/175/56
f 44/303/56 106/170/56 43/305/56
f 43/305/56 106/170/56 109/173/56
f 43/305/56 109/173/56 110/174/56
f 111/175/56 51/304/56 36/306/56
f 111/175/56 36/306/56 115/179/56
f 115/179/56 36/306/56 121/185/56
f 121/185/56 36/306/56 35/307/56
f 121/185/56 35/307/56 124/188/56
f 43/305/56 110/174/56 70/308/56
f 70/308/56 110/174/56 118/182/56
f 70/308/56 118/182/56 126/190/56
f 124/188/56 35/307/56 69/309/56
f 124/188/56 69/309/56 127/193/56
f 127/193/56 69/309/56 134/201/56
f 70/308/56 126/190/56 32/310/56
f 32/310/56 126/190/56 129/196/56
f 32/310/56 129/196/56 132/199/56
f 32/310/56 132/199/56 31/311/56
f 31/311/56 132/199/56 136/204/56
f 134/201/56 69/309/56 68/312/56
f 134/201/56 68/312/56 138/207/56
f 138/207/56 68/312/56 140/212/56
f 31/311/56 136/204/56 42/313/56
f 42/313/56 136/204/56 139/208/56
f 42/313/56 139/208/56 141/213/56
f 140/212/56 68/312/56 67/314/56
f 42/313/56 141/213/56 55/315/56
f 140/212/56 67/314/56 142/214/56
f 55/315/56 141/213/56 143/215/56
f 142/214/56 67/314/56 144/216/56
f 55/315/56 143/215/56 144/216/56
f 55/315/56 144/216/56 67/314/56
f 55/315/56 67/314/56 65/316/56
f 55/315/56 65/316/56 56/317/56
f 56/317/56 65/316/56 64/318/56
f 56/317/56 64/318/56 15/319/56
f 15/319/56 64/318/56 16/320/56

