# Created by Kenney (www.kenney.nl)

mtllib wheelTractorFront.mtl

g wheelTractorFront

v 0.04488 -0.2332033 0.13464
v -0.13464 -0.2332033 0.13464
v 0.04488 -0.1904097 0.1904097
v -0.13464 -0.1904097 0.1904097
v 0.04488 -0.1904097 -0.1904097
v 0.13464 -0.1618483 -0.1618483
v 0.04488 -0.13464 -0.2332033
v 0.13464 -0.114444 -0.1982228
v -0.13464 -0.1904097 -0.1904097
v -0.13464 -0.13464 -0.2332033
v 0.04488 -0.13464 0.2332033
v -0.13464 -0.13464 0.2332033
v 0.04488 -0.06969479 0.2601045
v -0.13464 -0.06969479 0.2601045
v 0.13464 0.1982228 0.114444
v 0.13464 0.1618483 0.1618483
v 0.04488 0.2332033 0.13464
v 0.04488 0.1904097 0.1904097
v 0.13464 -0.1982228 -0.114444
v 0.04488 -0.2332033 -0.13464
v 0.13464 -0.2210888 -0.05924058
v 0.04488 -0.2601045 -0.06969479
v 0.13464 0 -0.228888
v 0.13464 -0.05924058 -0.2210888
v 0.13464 0.05924058 -0.2210888
v 0.13464 0.114444 -0.1982228
v 0.13464 0.1618483 -0.1618483
v 0.13464 1.398703E-15 -0.1479965
v 0.13464 0.0383043 -0.1429536
v 0.13464 -0.0383043 -0.1429536
v 0.13464 0.1982228 -0.114444
v 0.13464 0.07399823 -0.1281687
v 0.13464 0.1046493 -0.1046493
v 0.13464 -0.07399823 -0.1281687
v 0.13464 -0.1046493 -0.1046493
v 0.13464 0.2210888 -0.05924058
v 0.13464 0.1281687 -0.07399823
v 0.13464 0.1429536 -0.0383043
v 0.13464 0.228888 4.331469E-15
v 0.13464 0.1479965 4.331469E-15
v 0.13464 -0.1281687 -0.07399823
v 0.13464 -0.1429536 -0.0383043
v 0.13464 0.2210888 0.05924058
v 0.13464 0.1429536 0.0383043
v 0.13464 0.1281687 0.07399823
v 0.13464 -0.228888 4.331469E-15
v 0.13464 -0.1479965 4.331469E-15
v 0.13464 -0.1429536 0.0383043
v 0.13464 -0.2210888 0.05924058
v 0.13464 -0.1281687 0.07399823
v 0.13464 0.1046493 0.1046493
v 0.13464 0.07399823 0.1281687
v 0.13464 -0.1982228 0.114444
v 0.13464 -0.1046493 0.1046493
v 0.13464 -0.07399823 0.1281687
v 0.13464 -0.1618483 0.1618483
v 0.13464 0.0383043 0.1429536
v 0.13464 -0.0383043 0.1429536
v 0.13464 1.534062E-15 0.1479965
v 0.13464 0.114444 0.1982228
v 0.13464 -0.114444 0.1982228
v 0.13464 0.05924058 0.2210888
v 0.13464 -0.05924058 0.2210888
v 0.13464 4.511946E-17 0.228888
v 0.04488 -0.2601045 0.06969479
v 0.04488 0.13464 0.2332033
v -0.13464 0.13464 0.2332033
v -0.13464 0.1904097 0.1904097
v 0.04488 0.2332033 -0.13464
v 0.04488 0.2601045 -0.06969479
v -0.13464 0.2332033 0.13464
v -0.13464 0.2332033 -0.13464
v -0.13464 0.2601045 -0.06969479
v 0.04488 0.26928 2.165734E-15
v -0.13464 0.26928 -2.165734E-15
v 0.04488 4.511946E-17 0.26928
v -0.13464 4.511946E-17 0.26928
v 0.04488 0.06969479 0.2601045
v -0.13464 0.06969479 0.2601045
v -0.13464 -0.06969479 -0.2601045
v 0.04488 -0.06969479 -0.2601045
v -0.13464 0 -0.26928
v 0.04488 0 -0.26928
v 0.04488 0.06969479 -0.2601045
v 0.04488 0.13464 -0.2332033
v 0.04488 0.2601045 0.06969479
v 0.04488 0.1904097 -0.1904097
v -0.13464 -0.2332033 -0.13464
v -0.13464 -0.2601045 -0.06969479
v -0.13464 0.1904097 -0.1904097
v -0.13464 0.2601045 0.06969479
v 0.04488 -0.26928 2.165734E-15
v -0.13464 -0.26928 -2.165734E-15
v -0.13464 -0.2601045 0.06969479
v -0.13464 0.06969479 -0.2601045
v -0.13464 0.13464 -0.2332033
v 0.13464 1.127987E-15 -0.09831003
v 0.13464 0.02544451 -0.09496019
v 0.13464 -0.02544451 -0.09496019
v 0.13464 0.04915502 -0.08513898
v 0.13464 0.06951569 -0.06951569
v 0.13464 -0.04915502 -0.08513898
v 0.13464 -0.06951569 -0.06951569
v 0.13464 0.08513898 -0.04915502
v 0.13464 0.09496019 -0.02544451
v 0.13464 0.09831003 4.331469E-15
v 0.13464 -0.08513898 -0.04915502
v 0.13464 -0.09496019 -0.02544451
v 0.13464 0.09496019 0.02544451
v 0.13464 0.08513898 0.04915502
v 0.13464 -0.09831003 4.331469E-15
v 0.13464 -0.09496019 0.02544451
v 0.13464 -0.08513898 0.04915502
v 0.13464 0.06951569 0.06951569
v 0.13464 0.04915502 0.08513898
v 0.13464 -0.06951569 0.06951569
v 0.13464 -0.04915502 0.08513898
v 0.13464 0.02544451 0.09496019
v 0.13464 -0.02544451 0.09496019
v 0.13464 8.121503E-16 0.09831003
v 0.04488 0.01908338 0.07122014
v 0.04488 0.03686626 0.06385423
v 0.04488 9.926282E-16 -0.07373252
v 0.04488 -0.01908338 -0.07122014
v 0.04488 0.01908338 -0.07122014
v 0.04488 0.03686626 -0.06385423
v 0.04488 -0.03686626 -0.06385423
v 0.04488 0.05213676 -0.05213676
v 0.04488 -0.05213676 -0.05213676
v 0.04488 0.06385423 -0.03686626
v 0.04488 -0.06385423 -0.03686626
v 0.04488 0.07122014 -0.01908338
v 0.04488 -0.07122014 -0.01908338
v 0.04488 0.07373252 2.165734E-15
v 0.04488 -0.07373252 2.165734E-15
v 0.04488 0.07122014 0.01908338
v 0.04488 -0.07122014 0.01908338
v 0.04488 0.06385423 0.03686626
v 0.04488 -0.06385423 0.03686626
v 0.04488 0.05213676 0.05213676
v 0.04488 -0.05213676 0.05213676
v 0.04488 -0.03686626 0.06385423
v 0.04488 -0.01908338 0.07122014
v 0.04488 7.219114E-16 0.07373252

vn 0 -0.8660254 0.5
vn 0 -0.7071068 0.7071068
vn 0.4103647 -0.6448259 -0.6448259
vn 0.4103647 -0.4559608 -0.7897472
vn 0 -0.7071068 -0.7071068
vn 0 -0.5 -0.8660254
vn 0 -0.5 0.8660254
vn 0 -0.258819 0.9659258
vn 0.4103647 0.7897472 0.4559608
vn 0.4103647 0.6448259 0.6448259
vn 0.4103647 -0.7897472 -0.4559608
vn 0.4103647 -0.8808486 -0.2360227
vn 1 0 0
vn 0.4103647 -0.8808486 0.2360227
vn 0.4103647 -0.7897472 0.4559608
vn 0 0.5 0.8660254
vn 0 0.7071068 0.7071068
vn 0.4103647 0.7897472 -0.4559608
vn 0.4103647 0.8808486 -0.2360227
vn 0 0.8660254 0.5
vn 0 0.8660254 -0.5
vn 0 0.9659258 -0.258819
vn 0.4103647 -0.6448259 0.6448259
vn 0.4103647 -0.4559608 0.7897472
vn 0 1 0
vn 0 0 1
vn 0 0.258819 0.9659258
vn 0 -0.258819 -0.9659258
vn 0 0 -1
vn 0.4103647 0.2360227 -0.8808486
vn 0.4103647 0.4559608 -0.7897472
vn 0.4103647 0.8808486 0.2360227
vn 0.4103647 0.6448259 -0.6448259
vn 0.4103647 0 0.9119215
vn 0.4103647 0.2360227 0.8808486
vn 0 -0.8660254 -0.5
vn 0 -0.9659258 -0.258819
vn 0.4103647 0 -0.9119215
vn 0.4103647 0.9119215 0
vn 0 0.7071068 -0.7071068
vn 0 0.9659258 0.258819
vn 0 -1 0
vn 0 -0.9659258 0.258819
vn 0.4103647 0.4559608 0.7897472
vn 0.4103647 -0.2360227 0.8808486
vn 0 0.258819 -0.9659258
vn 0 0.5 -0.8660254
vn 0.4103647 -0.2360227 -0.8808486
vn 0.4103647 -0.9119215 0
vn -1 0 0
vn 0.2640924 -0.2496303 -0.9316329
vn 0.2640925 -0.4822487 -0.8352792
vn 0.2640924 0.2496303 -0.9316329
vn 0.2640925 0 -0.9644974
vn 0.2640925 0.6820027 0.6820027
vn 0.2640925 0.8352792 0.4822487
vn 0.2640925 -0.6820027 -0.6820027
vn 0.2640925 -0.8352792 -0.4822487
vn 0.2640924 0.9316329 0.2496303
vn 0.2640925 0.6820027 -0.6820027
vn 0.2640925 0.4822487 -0.8352792
vn 0.2640924 0.9316329 -0.2496303
vn 0.2640925 0.8352792 -0.4822487
vn 0.2640925 0.4822487 0.8352792
vn 0.2640924 0.2496303 0.9316329
vn 0.2640925 0 0.9644974
vn 0.2640924 -0.2496303 0.9316329
vn 0.2640925 -0.4822487 0.8352792
vn 0.2640924 -0.9316329 -0.2496303
vn 0.2640925 -0.9644974 0
vn 0.2640925 0.9644974 0
vn 0.2640925 -0.8352792 0.4822487
vn 0.2640924 -0.9316329 0.2496303
vn 0.2640925 -0.6820027 0.6820027

vt 1.766929 -1.383783
vt -5.300787 -1.383783
vt 1.766929 1.383783
vt -5.300787 1.383783
vt 2.134417 -2.117136
vt -1.496969 -0.7643484
vt 2.960247 0.5243462
vt -0.7950141 1.480911
vt 5.300787 -1.383783
vt -1.766929 -1.383783
vt 5.300787 1.383783
vt -1.766929 1.383783
vt 1.61208 0.475757
vt 0.5088544 -1.601941
vt -1.70827 2.473826
vt -3.006183 0.02947604
vt -0.03116475 1.680528
vt 2.873091 -0.8850723
vt -1.680814 0.003449711
vt 0.9323273 -2.858106
vt 9.011338 -6.804023E-16
vt 8.704285 -2.332306
vt 8.704285 2.332306
vt 7.804048 4.505669
vt 7.804048 -4.505669
vt 6.371979 6.371979
vt 6.371979 -6.371979
vt 5.826632 5.506706E-14
vt 5.628094 1.508043
vt 5.628094 -1.508043
vt 4.505669 7.804048
vt 5.046011 2.913316
vt 4.120051 4.120051
vt 4.505669 -7.804048
vt 5.046011 -2.913316
vt 4.120051 -4.120051
vt 2.332306 8.704285
vt 2.913316 5.046011
vt 1.508043 5.628094
vt -4.179465E-14 9.011338
vt -4.179465E-14 5.826632
vt 2.332306 -8.704285
vt 2.913316 -5.046011
vt 1.508043 -5.628094
vt -2.332306 8.704285
vt -1.508043 5.628094
vt -2.913316 5.046011
vt -4.179465E-14 -9.011338
vt -4.179465E-14 -5.826632
vt -1.508043 -5.628094
vt -2.332306 -8.704285
vt -2.913316 -5.046011
vt -4.505669 7.804048
vt -4.120051 4.120051
vt -5.046011 2.913316
vt -4.505669 -7.804048
vt -4.120051 -4.120051
vt -5.046011 -2.913316
vt -6.371979 6.371979
vt -6.371979 -6.371979
vt -5.628094 1.508043
vt -5.628094 -1.508043
vt -5.826632 6.039613E-14
vt -7.804048 4.505669
vt -7.804048 -4.505669
vt -8.704285 2.332306
vt -8.704285 -2.332306
vt -9.011338 1.095954E-15
vt 1.680814 0.003449711
vt -0.9323273 -2.858106
vt 0.03116475 1.680528
vt -2.873091 -0.8850723
vt -0.03116475 -1.680528
vt -1.680814 -0.003449711
vt 2.873091 0.8850723
vt 0.9323273 2.858106
vt -2.134417 -2.117136
vt -2.960247 0.5243462
vt 1.496969 -0.7643484
vt 0.7950141 1.480911
vt -0.9882122 -1.359626
vt -1.379688 0.9600033
vt 2.861987 -0.9203433
vt 2.401427 1.808632
vt 1.680814 -0.003449711
vt 0.03116475 -1.680528
vt -0.9323273 2.858106
vt -2.873091 0.8850723
vt -0.7950141 -1.480911
vt -1.496969 0.7643484
vt 2.960247 -0.5243462
vt 2.134417 2.117136
vt 1.135967 -1.23884
vt -2.739211 -1.23884
vt 1.261971 1.110214
vt -2.590971 1.524753
vt 2.739211 -1.23884
vt -1.135967 -1.23884
vt 2.590971 1.524753
vt -1.261971 1.110214
vt 0.7500612 -1.504179
vt -1.488414 -0.7808783
vt 2.137362 2.114163
vt -0.4961379 2.965106
vt 1.61208 -0.475757
vt -1.70827 -2.473826
vt 0.5088544 1.601941
vt -3.006183 -0.02947604
vt 0.9882122 -1.359626
vt -2.861987 -0.9203433
vt 1.379688 0.9600033
vt -2.401427 1.808632
vt -2.590971 -1.524753
vt -2.739211 1.23884
vt 1.261971 -1.110214
vt 1.135967 1.23884
vt -2.401427 -1.808632
vt -2.861987 0.9203433
vt 1.379688 -0.9600033
vt 0.9882122 1.359626
vt -0.5088544 -1.601941
vt -1.61208 0.475757
vt 3.006183 0.02947604
vt 1.70827 2.473826
vt -1.61208 -0.475757
vt -0.5088544 1.601941
vt 1.70827 -2.473826
vt 3.006183 -0.02947604
vt 2.590971 -1.524753
vt -1.261971 -1.110214
vt 2.739211 1.23884
vt -1.135967 1.23884
vt 0.7500612 1.504179
vt 2.137362 -2.114163
vt -1.488414 0.7808783
vt -0.4961379 -2.965106
vt 2.401427 -1.808632
vt -1.379688 -0.9600033
vt 2.861987 0.9203433
vt -0.9882122 1.359626
vt 1.488414 -0.7808783
vt -0.7500612 -1.504179
vt 0.4961379 2.965106
vt -2.137362 2.114163
vt 1.488414 0.7808783
vt 0.4961379 -2.965106
vt -0.7500612 1.504179
vt -2.137362 -2.114163
vt -10.60157 0
vt -10.24033 2.74389
vt -10.24033 -2.74389
vt -9.181233 5.300787
vt -9.181233 -5.300787
vt -7.496446 -7.496446
vt -7.496446 7.496446
vt -5.300787 -9.181233
vt -5.300787 9.181233
vt -2.74389 -10.24033
vt -2.74389 10.24033
vt 4.347048E-14 -10.60157
vt 4.347048E-14 10.60157
vt 2.74389 -10.24033
vt 2.74389 10.24033
vt 5.300787 -9.181233
vt 5.300787 9.181233
vt 7.496446 -7.496446
vt 7.496446 7.496446
vt 9.181233 -5.300787
vt 9.181233 5.300787
vt 10.24033 -2.74389
vt 10.24033 2.74389
vt 10.60157 1.776357E-15
vt 0.7950141 -1.480911
vt -2.960247 -0.5243462
vt 1.496969 0.7643484
vt -2.134417 2.117136
vt 3.870474 4.440892E-14
vt 3.73859 1.001752
vt 3.73859 -1.001752
vt 3.351928 1.935237
vt 2.736838 2.736838
vt 3.351928 -1.935237
vt 2.736838 -2.736838
vt 1.935237 3.351928
vt 1.001752 3.73859
vt -4.179465E-14 3.870474
vt 1.935237 -3.351928
vt 1.001752 -3.73859
vt -1.001752 3.73859
vt -1.935237 3.351928
vt -4.179465E-14 -3.870474
vt -1.001752 -3.73859
vt -1.935237 -3.351928
vt -2.736838 2.736838
vt -3.351928 1.935237
vt -2.736838 -2.736838
vt -3.351928 -1.935237
vt -3.73859 1.001752
vt -3.73859 -1.001752
vt -3.870474 3.197442E-14
vt -2.485745 -0.1113717
vt -6.139759 0.1581183
vt -2.40399 0.6420025
vt -6.030751 1.162617
vt 2.902855 3.865145E-14
vt 2.803943 -0.7513142
vt 2.803943 0.7513142
vt 2.513946 1.451428
vt 2.513946 -1.451428
vt 2.052629 2.052629
vt 2.052629 -2.052629
vt 1.451428 2.513946
vt 1.451428 -2.513946
vt 0.7513142 2.803943
vt 0.7513142 -2.803943
vt -4.235326E-14 2.902855
vt -4.235326E-14 -2.902855
vt -0.7513142 2.803943
vt -0.7513142 -2.803943
vt -1.451428 2.513946
vt -1.451428 -2.513946
vt -2.052629 2.052629
vt -2.052629 -2.052629
vt -2.513946 1.451428
vt -2.513946 -1.451428
vt -2.803943 0.7513142
vt -2.803943 -0.7513142
vt -2.902855 2.799331E-14
vt -6.099929 -0.7158942
vt -6.134758 0.2939017
vt -2.444699 -0.4634452
vt -2.470821 0.2939017
vt 5.955886 -1.499688
vt 5.629411 -2.455886
vt 2.449735 -0.4360393
vt 2.204879 -1.153188
vt -5.955886 1.499688
vt -5.629411 2.455886
vt -2.449735 0.4360393
vt -2.204879 1.153188
vt 5.443129 -2.844993
vt 4.903024 -3.698918
vt 2.280922 -0.9943488
vt 1.875843 -1.634792
vt -5.901355 -1.701661
vt -6.100492 -0.7110831
vt -2.336309 -0.8561499
vt -2.485662 -0.1132162
vt -4.903024 -3.698918
vt -5.443129 -2.844993
vt -1.875843 -1.634792
vt -2.280922 -0.9943488
vt -6.030751 -1.162617
vt -6.139759 -0.1581183
vt -2.40399 -0.6420025
vt -2.485745 0.1113717
vt 6.030751 -1.162617
vt 2.40399 -0.6420025
vt 6.139759 -0.1581183
vt 2.485745 0.1113717
vt -2.470821 -0.2939017
vt -6.134758 -0.2939017
vt -2.444699 0.4634452
vt -6.099929 0.7158942
vt 6.099929 -0.7158942
vt 2.444699 -0.4634452
vt 6.134758 0.2939017
vt 2.470821 0.2939017
vt 2.485745 -0.1113717
vt 2.40399 0.6420025
vt 6.139759 0.1581183
vt 6.030751 1.162617
vt -3.19978 5.242428
vt -2.296962 5.696104
vt -1.442767 2.027253
vt -0.7656542 2.367511
vt 3.19978 -5.242428
vt 2.296962 -5.696104
vt 1.442767 -2.027253
vt 0.7656542 -2.367511
vt -4.903024 3.698918
vt -1.875843 1.634792
vt -5.443129 2.844993
vt -2.280922 0.9943488
vt 5.443129 2.844993
vt 2.280922 0.9943488
vt 4.903024 3.698918
vt 1.875843 1.634792
vt 5.629411 2.455886
vt 5.955886 1.499688
vt 2.204879 1.153188
vt 2.449735 0.4360393
vt -2.296962 -5.696104
vt -3.19978 -5.242428
vt -0.7656542 -2.367511
vt -1.442767 -2.027253
vt 5.901355 -1.701661
vt 2.336309 -0.8561499
vt 6.100492 -0.7110831
vt 2.485662 -0.1132162
vt 2.485662 0.1132162
vt 2.336309 0.8561499
vt 6.100492 0.7110831
vt 5.901355 1.701661
vt -5.629411 -2.455886
vt -5.955886 -1.499688
vt -2.204879 -1.153188
vt -2.449735 -0.4360393
vt 2.296962 5.696104
vt 3.19978 5.242428
vt 0.7656542 2.367511
vt 1.442767 2.027253
vt -2.485662 0.1132162
vt -6.100492 0.7110831
vt -2.336309 0.8561499
vt -5.901355 1.701661
vt 2.470821 -0.2939017
vt 2.444699 0.4634452
vt 6.134758 -0.2939017
vt 6.099929 0.7158942

usemtl carTire

f 3/3/2 2/2/1 1/1/1
f 2/2/1 3/3/2 4/4/2
f 7/7/4 6/6/3 5/5/3
f 6/6/3 7/7/4 8/8/4
f 10/11/6 5/10/5 9/9/5
f 5/10/5 10/11/6 7/12/6
f 13/3/8 12/2/7 11/1/7
f 12/2/7 13/3/8 14/4/8
f 17/15/9 16/14/10 15/13/9
f 16/14/10 17/15/9 18/16/10
f 21/19/12 20/18/11 19/17/11
f 20/18/11 21/19/12 22/20/12
f 25/23/13 24/22/13 23/21/13
f 24/22/13 25/23/13 26/24/13
f 24/22/13 26/24/13 8/25/13
f 8/25/13 26/24/13 27/26/13
f 8/25/13 27/26/13 6/27/13
f 6/27/13 27/26/13 28/28/13
f 28/28/13 27/26/13 29/29/13
f 30/30/13 6/27/13 28/28/13
f 29/29/13 27/26/13 31/31/13
f 29/29/13 31/31/13 32/32/13
f 32/32/13 31/31/13 33/33/13
f 6/27/13 30/30/13 19/34/13
f 19/34/13 30/30/13 34/35/13
f 19/34/13 34/35/13 35/36/13
f 33/33/13 31/31/13 36/37/13
f 33/33/13 36/37/13 37/38/13
f 37/38/13 36/37/13 38/39/13
f 38/39/13 36/37/13 39/40/13
f 38/39/13 39/40/13 40/41/13
f 19/34/13 35/36/13 21/42/13
f 21/42/13 35/36/13 41/43/13
f 21/42/13 41/43/13 42/44/13
f 40/41/13 39/40/13 43/45/13
f 40/41/13 43/45/13 44/46/13
f 44/46/13 43/45/13 45/47/13
f 21/42/13 42/44/13 46/48/13
f 46/48/13 42/44/13 47/49/13
f 46/48/13 47/49/13 48/50/13
f 46/48/13 48/50/13 49/51/13
f 49/51/13 48/50/13 50/52/13
f 45/47/13 43/45/13 15/53/13
f 45/47/13 15/53/13 51/54/13
f 51/54/13 15/53/13 52/55/13
f 49/51/13 50/52/13 53/56/13
f 53/56/13 50/52/13 54/57/13
f 53/56/13 54/57/13 55/58/13
f 52/55/13 15/53/13 16/59/13
f 53/56/13 55/58/13 56/60/13
f 52/55/13 16/59/13 57/61/13
f 56/60/13 55/58/13 58/62/13
f 57/61/13 16/59/13 59/63/13
f 56/60/13 58/62/13 59/63/13
f 56/60/13 59/63/13 16/59/13
f 56/60/13 16/59/13 60/64/13
f 56/60/13 60/64/13 61/65/13
f 61/65/13 60/64/13 62/66/13
f 61/65/13 62/66/13 63/67/13
f 63/67/13 62/66/13 64/68/13
f 53/71/15 65/70/14 49/69/14
f 65/70/14 53/71/15 1/72/15
f 18/3/17 67/2/16 66/1/16
f 67/2/16 18/3/17 68/4/17
f 69/75/18 36/74/19 31/73/18
f 36/74/19 69/75/18 70/76/19
f 71/4/20 18/1/17 17/3/20
f 18/1/17 71/4/20 68/2/17
f 72/9/21 70/12/22 69/10/21
f 70/12/22 72/9/21 73/11/22
f 56/79/23 11/78/24 3/77/23
f 11/78/24 56/79/23 61/80/24
f 73/9/22 74/12/25 70/10/22
f 74/12/25 73/9/22 75/11/25
f 78/3/27 77/2/26 76/1/26
f 77/2/26 78/3/27 79/4/27
f 82/11/29 81/10/28 80/9/28
f 81/10/28 82/11/29 83/12/29
f 66/3/16 79/2/27 78/1/27
f 79/2/27 66/3/16 67/4/16
f 84/83/30 26/82/31 25/81/30
f 26/82/31 84/83/30 85/84/31
f 86/87/32 15/86/9 43/85/32
f 15/86/9 86/87/32 17/88/9
f 85/91/31 27/90/33 26/89/31
f 27/90/33 85/91/31 87/92/33
f 62/95/35 76/94/34 64/93/34
f 76/94/34 62/95/35 78/96/35
f 22/10/37 88/11/36 20/12/36
f 88/11/36 22/10/37 89/9/37
f 84/99/30 23/98/38 83/97/38
f 23/98/38 84/99/30 25/100/30
f 20/10/36 9/11/5 5/12/5
f 9/11/5 20/10/36 88/9/36
f 80/11/28 7/10/6 10/9/6
f 7/10/6 80/11/28 81/12/28
f 70/103/19 39/102/39 36/101/19
f 39/102/39 70/103/19 74/104/39
f 90/9/40 69/12/21 87/10/40
f 69/12/21 90/9/40 72/11/21
f 56/107/23 1/106/15 53/105/15
f 1/106/15 56/107/23 3/108/23
f 75/4/25 86/1/41 74/3/25
f 86/1/41 75/4/25 91/2/41
f 65/3/43 93/2/42 92/1/42
f 93/2/42 65/3/43 94/4/43
f 60/111/44 78/110/35 62/109/35
f 78/110/35 60/111/44 66/112/44
f 63/115/45 76/114/34 13/113/45
f 76/114/34 63/115/45 64/116/34
f 61/119/24 13/118/45 11/117/24
f 13/118/45 61/119/24 63/120/45
f 87/123/33 31/122/18 27/121/33
f 31/122/18 87/123/33 69/124/18
f 20/127/11 6/126/3 19/125/11
f 6/126/3 20/127/11 5/128/3
f 91/4/41 17/1/20 86/3/41
f 17/1/20 91/4/41 71/2/20
f 96/11/47 84/10/46 95/9/46
f 84/10/46 96/11/47 85/12/47
f 83/131/38 24/130/48 81/129/48
f 24/130/48 83/131/38 23/132/38
f 11/3/7 4/2/2 3/1/2
f 4/2/2 11/3/7 12/4/7
f 76/3/26 14/2/8 13/1/8
f 14/2/8 76/3/26 77/4/26
f 90/11/40 85/10/47 96/9/47
f 85/10/47 90/11/40 87/12/40
f 46/135/49 22/134/12 21/133/12
f 22/134/12 46/135/49 92/136/49
f 81/139/48 8/138/4 7/137/4
f 8/138/4 81/139/48 24/140/48
f 74/143/39 43/142/32 39/141/39
f 43/142/32 74/143/39 86/144/32
f 1/3/1 94/2/43 65/1/43
f 94/2/43 1/3/1 2/4/1
f 49/147/14 92/146/49 46/145/49
f 92/146/49 49/147/14 65/148/14
f 95/11/46 83/10/29 82/9/29
f 83/10/29 95/11/46 84/12/46
f 80/151/50 95/150/50 82/149/50
f 95/150/50 80/151/50 96/152/50
f 96/152/50 80/151/50 10/153/50
f 96/152/50 10/153/50 9/154/50
f 96/152/50 9/154/50 90/155/50
f 90/155/50 9/154/50 88/156/50
f 90/155/50 88/156/50 72/157/50
f 72/157/50 88/156/50 89/158/50
f 72/157/50 89/158/50 73/159/50
f 73/159/50 89/158/50 93/160/50
f 73/159/50 93/160/50 75/161/50
f 75/161/50 93/160/50 94/162/50
f 75/161/50 94/162/50 91/163/50
f 91/163/50 94/162/50 2/164/50
f 91/163/50 2/164/50 71/165/50
f 71/165/50 2/164/50 4/166/50
f 71/165/50 4/166/50 68/167/50
f 68/167/50 4/166/50 12/168/50
f 68/167/50 12/168/50 67/169/50
f 67/169/50 12/168/50 14/170/50
f 67/169/50 14/170/50 79/171/50
f 79/171/50 14/170/50 77/172/50
f 92/10/42 89/11/37 22/12/37
f 89/11/37 92/10/42 93/9/42
f 16/175/10 66/174/44 60/173/44
f 66/174/44 16/175/10 18/176/10

usemtl paintYellow

f 29/29/13 30/30/13 28/28/13
f 30/30/13 29/29/13 32/32/13
f 30/30/13 32/32/13 34/35/13
f 34/35/13 32/32/13 33/33/13
f 34/35/13 33/33/13 35/36/13
f 35/36/13 33/33/13 97/177/13
f 33/33/13 98/178/13 97/177/13
f 35/36/13 97/177/13 99/179/13
f 98/178/13 33/33/13 37/38/13
f 98/178/13 37/38/13 100/180/13
f 100/180/13 37/38/13 101/181/13
f 35/36/13 99/179/13 41/43/13
f 41/43/13 99/179/13 102/182/13
f 41/43/13 102/182/13 103/183/13
f 101/181/13 37/38/13 38/39/13
f 101/181/13 38/39/13 104/184/13
f 104/184/13 38/39/13 105/185/13
f 105/185/13 38/39/13 40/41/13
f 105/185/13 40/41/13 106/186/13
f 41/43/13 103/183/13 42/44/13
f 42/44/13 103/183/13 107/187/13
f 42/44/13 107/187/13 108/188/13
f 106/186/13 40/41/13 44/46/13
f 106/186/13 44/46/13 109/189/13
f 109/189/13 44/46/13 110/190/13
f 42/44/13 108/188/13 47/49/13
f 47/49/13 108/188/13 111/191/13
f 47/49/13 111/191/13 112/192/13
f 47/49/13 112/192/13 48/50/13
f 48/50/13 112/192/13 113/193/13
f 110/190/13 44/46/13 45/47/13
f 110/190/13 45/47/13 114/194/13
f 114/194/13 45/47/13 115/195/13
f 48/50/13 113/193/13 50/52/13
f 50/52/13 113/193/13 116/196/13
f 50/52/13 116/196/13 117/197/13
f 115/195/13 45/47/13 51/54/13
f 50/52/13 117/197/13 54/57/13
f 115/195/13 51/54/13 118/198/13
f 54/57/13 117/197/13 119/199/13
f 118/198/13 51/54/13 120/200/13
f 54/57/13 119/199/13 120/200/13
f 54/57/13 120/200/13 51/54/13
f 54/57/13 51/54/13 52/55/13
f 54/57/13 52/55/13 55/58/13
f 55/58/13 52/55/13 57/61/13
f 55/58/13 57/61/13 58/62/13
f 58/62/13 57/61/13 59/63/13
f 122/203/52 118/202/51 121/201/51
f 118/202/51 122/203/52 115/204/52
f 125/207/13 124/206/13 123/205/13
f 124/206/13 125/207/13 126/208/13
f 124/206/13 126/208/13 127/209/13
f 127/209/13 126/208/13 128/210/13
f 127/209/13 128/210/13 129/211/13
f 129/211/13 128/210/13 130/212/13
f 129/211/13 130/212/13 131/213/13
f 131/213/13 130/212/13 132/214/13
f 131/213/13 132/214/13 133/215/13
f 133/215/13 132/214/13 134/216/13
f 133/215/13 134/216/13 135/217/13
f 135/217/13 134/216/13 136/218/13
f 135/217/13 136/218/13 137/219/13
f 137/219/13 136/218/13 138/220/13
f 137/219/13 138/220/13 139/221/13
f 139/221/13 138/220/13 140/222/13
f 139/221/13 140/222/13 141/223/13
f 141/223/13 140/222/13 122/224/13
f 141/223/13 122/224/13 142/225/13
f 142/225/13 122/224/13 121/226/13
f 142/225/13 121/226/13 143/227/13
f 143/227/13 121/226/13 144/228/13
f 143/231/53 120/230/54 119/229/53
f 120/230/54 143/231/53 144/232/54
f 129/235/55 107/234/56 103/233/55
f 107/234/56 129/235/55 131/236/56
f 140/239/57 110/238/58 114/237/57
f 110/238/58 140/239/57 138/240/58
f 131/243/56 108/242/59 107/241/56
f 108/242/59 131/243/56 133/244/59
f 141/247/60 117/246/61 116/245/60
f 117/246/61 141/247/60 142/248/61
f 137/251/62 113/250/63 112/249/62
f 113/250/63 137/251/62 139/252/63
f 142/255/61 119/254/53 117/253/61
f 119/254/53 142/255/61 143/256/53
f 99/259/65 127/258/64 102/257/64
f 127/258/64 99/259/65 124/260/65
f 121/263/51 120/262/54 144/261/54
f 120/262/54 121/263/51 118/264/51
f 97/267/66 124/266/65 99/265/65
f 124/266/65 97/267/66 123/268/66
f 98/271/67 126/270/68 125/269/67
f 126/270/68 98/271/67 100/272/68
f 136/275/69 106/274/70 109/273/69
f 106/274/70 136/275/69 134/276/70
f 133/279/59 111/278/71 108/277/59
f 111/278/71 133/279/59 135/280/71
f 110/283/58 136/282/69 109/281/69
f 136/282/69 110/283/58 138/284/58
f 105/287/73 130/286/72 104/285/72
f 130/286/72 105/287/73 132/288/73
f 130/291/72 101/290/74 104/289/72
f 101/290/74 130/291/72 128/292/74
f 135/295/71 112/294/62 111/293/71
f 112/294/62 135/295/71 137/296/62
f 102/299/64 129/298/55 103/297/55
f 129/298/55 102/299/64 127/300/64
f 100/303/68 128/302/74 126/301/68
f 128/302/74 100/303/68 101/304/74
f 139/307/63 116/306/60 113/305/63
f 116/306/60 139/307/63 141/308/60
f 134/311/70 105/310/73 106/309/70
f 105/310/73 134/311/70 132/312/73
f 140/315/57 115/314/52 122/313/52
f 115/314/52 140/315/57 114/316/57
f 97/319/66 125/318/67 123/317/66
f 125/318/67 97/319/66 98/320/67

